<?xml version="1.0" encoding="utf-8"?>
<!-- Generator: Adobe Illustrator 22.1.0, SVG Export Plug-In . SVG Version: 6.00 Build 0)  -->
<svg version="1.1" id="Capa_1" xmlns="http://www.w3.org/2000/svg" xmlns:xlink="http://www.w3.org/1999/xlink" x="0px" y="0px"
	 viewBox="0 0 253 191" style="enable-background:new 0 0 253 191;" xml:space="preserve">
<style type="text/css">
	.st0{fill:#FFFFFF;}
</style>
<title>Mesa de trabajo 1 copia</title>
<path class="st0" d="M70.8,68.9c-1-2.5-1.5-5.2-1.6-8c0-1.9,0.8-3.8,0.4-5.8c2.1,0.6,1.4,2.9,3.2,2.9c-0.3-0.4-0.6-0.7-0.8-1.1
	c0.1-0.8-0.5-1.3-0.9-1.7L70.8,55c1.1,0,2.6,3.1,3.5,3.7c0.3,0.2-0.2,1,1,0.9c0-0.2,0-0.3,0-0.5c0-0.4,0.3-0.6,0.1-1.1
	c0.3,0.1,0.4,0.2,0.4,0.3c0.3,0.4,0.7,0.8,1,1.1c-0.2,0-0.4,0.1-0.4,0.3c0,0.7,2.5,1.5,3.2,1.7c0.6,0,0.4-0.4,0.5-0.7
	c-1.4-1-3.3-1.7-3.9-3.1c-0.8-0.4-1.5-0.8-2.1-1.4c-0.7-0.7-0.9-1.6-2.3-1.9c-0.1,0-0.4,0-0.5-0.1c0.1-0.2,0.4-0.3,0.6-0.3
	c0.2,0,3.2,1.2,3.6,1.3c0.2,0,0.4,0,0.6-0.1c-0.3-0.4-1.8-0.8-1.8-1.2l0.4-0.1c1.4,0,2.6,0.8,4,1.1c0-0.4-0.2-0.5-0.2-0.8
	c0.2-0.1,0.5-0.1,0.7-0.1c0.7,0.1,1.4,0.3,2.1,0.6c0.8-0.2,1.6-0.4,2.4-0.4c2.4,0,1.6,1.1,2.7,1.1c0.3,0,0.4-0.1,0.4-0.3
	c0-0.4-0.6-1.2-1.1-1.2c-0.3,0-0.8-0.1-0.8-0.4c-1.3-0.1-2.7-0.2-4-0.4c2.8-0.6,4-2.4,5.9-3.8c0.2,0,0.4-0.1,0.5-0.1
	c0.6,0,1.2,0.2,1.7,0.5c0.1,0.3,0.1,0.5,0.1,0.8c0,0.6-0.2,1.1-0.2,1.7c0,0.3,0.1,0.6,0.2,0.8c-0.1,0.1-0.3-0.1-0.4-0.1
	c-1.2,0-0.4,3.6-2.6,3.6l-0.5-0.3c-0.5,0-1.6,0.2-2,0.2c-0.2-0.1-0.4-0.2-0.6-0.3c-0.8-0.2-1.6-0.4-2.4-0.7c-0.1,0-0.3,0-0.4,0
	c-0.4,0-0.3-0.1-0.5-0.2c-0.2-0.1-0.4,0-0.5,0c1.9,1.1,4.1,1.7,6.4,1.7c0.9,0.1,1.9-0.2,2.6-0.8c2-1.1,1.5-3.1,1.5-4.7
	c0-0.5,0.1-1,0.3-1.5l0.3,0c0.9,0.8,0.5,2.2,1.7,2.8c0.1,0.2,0.1,0.3,0.1,0.5c0,1.1-1.1,2-1.1,3.2c0,0.1,0,0.3,0.1,0.4
	c0,0.1,0.6,0,0.6,0.1c0,0.3-0.7,0.8-1,1l-0.5-0.1C89.5,59,88,60.6,88,61.6l-0.5,0.3c-1.9,0-3.8-0.6-5.8-0.6c-0.2,0-0.3,0-0.5,0.1
	c1,0.2,2,0.6,2.9,1.2c-1,0.4-2.1,0.5-3.2,0.4c-1.6,0.1-3.1,0.3-4.6,0.6c0.9-0.6,2.2-0.2,2.8-0.8c-0.3,0-0.7-0.1-1.1-0.1
	c-0.8,0-1.6,0.2-2.4,0.4c-0.3,0.4-0.8,0.7-1.3,0.7c-0.6-0.6-1.8-1.1-1.9-2c-1.5-0.9-0.4-3.4-1.4-3.4c-0.1,1.1-0.1,2.3,0,3.4
	c0,0.2,0,0.6,0.3,0.6c0.1,0,0.3-0.2,0.4-0.2c0,0.1-0.3,0.2-0.3,0.3l0.1,0.3c0.8,0.3,0.6,0.9,1.7,0.9c0.5,0,0.3,0.6,0.7,0.6
	c0.3,0,0.8-0.1,1.1-0.1c-0.3,0.2-0.4,0.3-0.5,0.4c0.6,0.2,0.9-0.1,1.2-0.1s0.3,0.2,0.6,0.2c0.5,0,0.7-0.2,0.7-0.5l0.6-0.1
	c0,0.2-0.1,0.3,0,0.4c-1,0.5-2.7,0.3-3.6,1c-0.4,0.3-0.7,1.7-1.3,1.7c0-0.3,0.6-0.5,0.2-0.8c0.1-0.3,0.2-0.6,0.2-0.9
	c0-0.3-1-2.1-1.4-2.1c-0.1,0.9,0.3,1.4,0,2c0.1,0.2,0.5,0.1,0.8,0.3c-0.4,0.6-0.7,1.2-0.9,1.9l-0.1,1.5C71.8,69.4,71,69.6,70.8,68.9
	 M81.8,55.5l-0.1-0.6l1.9,0.8c0.3,0,0.5,0,0.8,0.1c0,0.2,0.2,0.2,0.2,0.4c-0.1,0.1-0.2,0.2-0.4,0.2C83.4,56.1,82.6,55.8,81.8,55.5
	 M85.7,61.6c-0.3,0-1-0.2-1-0.5c-1.5,0.1-2.9-0.1-4.3-0.6c1.1-0.1,2.1-0.3,3.2-0.3c0.8,0,1.6,0.1,2.4,0.4c0.2,0.2,0,0.5,0.2,0.6
	l0.4,0C86.6,61.6,86,61.6,85.7,61.6 M73.6,68c0.1-0.6,1.3-1,1.8-1.6l0.4,0c-0.7,0.6-0.9,1.2-1.8,1.5C73.9,68,73.8,68,73.6,68
	 M88.7,54.7l0.4-1.1c0,0.1,0,0.2,0,0.4C89.2,54.2,89,54.6,88.7,54.7 M64.9,54.8c0.1-0.3,0.1-0.3,0.2-0.4l0.4,0l0.4,0.3
	c0.1,0.2,0,0.4-0.1,0.4L65.1,55L64.9,54.8z M64.2,58.3c0.5,0.1,1,0.2,1.4,0.2c0.2-0.2-0.3-0.6-0.4-0.7c-0.6-0.1-1.1-0.3-1.6-0.6
	c-0.1-0.1-0.3-0.3-0.3-0.4c0.3,0,1.3,0.3,1.7,0.3c0.1,0,0.4-0.2,0.4-0.3c0-0.2-2.7-0.8-2.7-1.4c1,0,2,0.1,3,0.3
	c0.6,0,1.2-0.2,1.8-0.2l0.5,0.3c0.4,0.5,0.7,1.1,0.8,1.7v0.5c0,0.4-0.2,0.7-0.3,1c-0.8,0-1.2,0.1-1.7,0.1S64.2,58.6,64.2,58.3
	 M58.3,60.9l-0.8,0c-0.3-0.2-0.6-0.4-0.9-0.6C54,56,51,52.1,48.4,47.9c1.7,2.3,3.6,4.3,5.1,6.6c1,1.5,1.5,3.1,2.7,4.5
	C56.8,59.7,57.5,60.4,58.3,60.9 M67.5,60.2l0.3-0.3l0.4,0l-0.4,0.3L67.5,60.2z M65.4,63.9c-0.5-1.1-0.8-2.4-0.9-3.6
	c0-0.3,0.4-0.4,0.6-0.4h0.4c0.4,0,0.9,0.1,1.3,0.1l0,0.4c-0.6,0-0.9-0.2-1.3-0.2c-0.2,0-0.4,0.1-0.5,0.3c0,0.2,0.1,0.4,0.3,0.4
	L65.4,63.9z M69.5,54.9l-0.9-0.8c0.3-0.4,0.1-0.7,0.2-1.1c0.1,0.2,0.3,0.3,0.4,0.5c0.3,0.4,0.5,0.9,0.6,1.4L69.5,54.9z M72.1,29.9
	l0.1-0.4l0.3-0.1c-0.1,0.2-0.2,0.3-0.3,0.4L72.1,29.9z M75.8,30.7c-0.3-0.2-0.6,0-0.9-0.1c-0.2-0.3,0-0.8,0.3-1l0.3,0l0.7,1
	L75.8,30.7z M73.4,31.4c-0.1-0.2-0.2-0.4-0.2-0.6c0-0.2,0.1-0.3,0.2-0.4l0.4-0.1c0,0.3-0.1,0.7-0.2,1L73.4,31.4z M76.4,32
	c-0.3,0.1-0.3-0.1-0.5-0.1c-0.1,0-0.3,0.1-0.4,0c-0.2-0.2-0.1-0.6-0.5-0.6c-0.2,0-0.4,0.3-0.6,0.2c0.1-0.9,0.2-1.8,0.2-2.7l-0.3,0
	L74,29.1c-0.5,0-0.7-0.5-1-0.7c-0.7,0.1-1.7,0.4-2.3,0.4c1.2-1.6,3-2.5,5-2.5c1.4,0,3.5,0.6,4.2,2c0.2,0.5,0.4,1,0.5,1.5
	c0.2,0.5,0.4,1.1,0.4,1.7c0,0.2,0,0.3,0,0.5c-0.4-0.2-0.9-0.3-1.4-0.2c-0.6,0-1-0.7-1.6-0.8c0,0-0.3,0.5-0.1,0.5
	C77.2,31,77.6,31,77,30.5c-0.3,0.3-0.1,0.6-0.1,0.8c0,0.3-0.2,0.3-0.2,0.7H76.4z M84,33c0.1-0.2,0.3-0.3,0.4-0.5
	c-0.1-0.1-0.3-0.2-0.4-0.3l0.4,0l0.2,0.4l-0.2,0.4L84,33z M82,33.7v-0.3c0.1-0.1,0.3-0.2,0.4-0.4c0.3-0.3,0.6-0.5,1-0.5L82,33.7z
	 M82.7,34.4c0.4-0.4,0.6-0.6,0.9-0.6l0.4,0.1L82.7,34.4z M77.3,32.1c0.4,0.1,0.5,0.7,0.5,1c0,0.5-0.2,1.6-0.5,1.5
	c0-0.5,0.1-0.9,0.2-1.4c0-0.4-0.4-0.6-0.4-0.7C77.1,32.3,77.2,32.2,77.3,32.1 M81.9,35.3c-0.1-0.1-0.1-0.3-0.1-0.4
	c0.1-0.1,0.2-0.2,0.3-0.3c0,0.2,0.1,0.4,0.1,0.6L81.9,35.3z M75.1,38.8c0.3-0.3,0.7-0.6,1-1c0.2-0.2,0.4-0.5,0.5-0.8
	c0.1-0.1,0.1-0.3,0.2-0.4c0.2,0.5-0.2,1.1-0.4,1.3C76.1,38.4,75.6,38.6,75.1,38.8 M57.7,38.4l0.4-0.5l0.3,0
	c-0.1,0.1-0.3,0.2-0.4,0.3L57.7,38.4z M64.5,41.1c1.5-1.2,3.4-1.8,5.3-1.8c0.7,0,1.5,0.1,2.2,0.3c-1.6,0.1-3.1,0.5-4.6,1.1
	c-0.4,0.1-0.7,0-1.1,0C65.6,40.7,65,40.8,64.5,41.1 M63.2,41.2c0.2,0,0.4,0,0.7,0.1l-0.5,0.1c-0.2,0.1-0.3,0-0.4,0.1
	c-0.2,0.1-0.3,0.5-0.6,0.5c-0.3,0.3-0.3,0.5-0.5,0.5c-0.1-0.1-0.1-0.2,0-0.3c0.2-0.4,0.4-0.4,0.7-0.6C62.7,41.3,63,41.2,63.2,41.2
	 M55.9,40.5c0.8-0.7,1.6-1.2,2.5-1.8C57.7,39.5,56.8,40.1,55.9,40.5 M49.9,44.8l3.1-2.1c0,0.3-0.5,0.6-0.8,0.8
	C51.9,43.7,50.3,44.9,49.9,44.8 M48.1,47l0-0.4l0.2-0.4c0.4-0.3,0.9-0.6,1.5-0.7C49.2,45.9,48.6,46.4,48.1,47 M70.3,46.9L70,46.4
	c0.1-0.1,0.3-0.1,0.5-0.2c0.2,0.3,0.2,0.5,0.1,0.5L70.3,46.9z M93.9,49.1c-1.2-0.8-0.9-0.4-2-0.4c-0.2,0-0.2-0.7-0.6-0.9
	c-0.1,0-0.3,0.1-0.4,0.1c-1.3,0-2.2-1.2-3.4-1.2c-0.4,0-0.7,0.2-1.2,0.2c-1.2,0-2.2,0.9-3.5,0.9c-0.5,0-0.9-0.2-1.4-0.2
	c-1.8,0-3.6,0.9-5.4,0.9c-0.6,0-2.1,0.1-2.1-0.8l-2.1-1.4L71,44.1c0.5,0.3,1.2,1.3,1.6,1.3l-1-3c1.5,0,1.1,2.3,2.4,2.3
	c0.4-0.1,0.8-0.3,1.1-0.6c-0.8-0.7-1.5-0.2-1.7-1.7h3c0.6-0.4,1.3-0.5,2-0.3c0.2-0.2,0-0.5,0.2-0.7c0.1-0.2,1-0.1,1.2-0.1
	c1.4,0,1.3-1.8,4.9-1.8c1.5,0,2.9,0.2,4.3,0.6c0.1,0.7,1.4,0.8,1.9,1.2h0.5c0.2,0.1,0.3,1.8,1,1.8c0.1,0,0.7-0.2,0.7-0.4
	s-0.6-0.6-0.6-0.9c-0.3-1-0.6-3.5-2.1-3.5c-1,0-1.8,0.7-2.7,0.7c-0.4,0-0.7-0.1-1-0.3l0.2-0.6c-0.2-0.2-0.6-0.4-0.9-0.3
	c-0.5,0.1-1,0.1-1.5,0.1c-3.3,2.2-7.1,3.5-11.1,3.6c-0.4,0-0.5-0.4-0.4-0.7l-0.4-0.1c0.5-0.5,0.9-0.5,0.9-1c-1,0-0.9-0.5-0.9-1
	c0-0.6-0.5-0.2-0.5-0.7c0-0.4,0.6,0.1,0.6-0.5c0-0.3-0.8,0-1,0c-0.2,0-0.4-0.1-0.4-0.3c0-0.6,0.3-0.2,0.6-0.2
	c0.2-0.3-0.3-1.2-0.3-1.2c-0.1,0,0,0.5,0,0.5c-0.7,0.1-0.8,0.6-1.1,0.6l-0.1-2.4c0.5,0.3,0.7,1.2,1,1.2c0.2,0,0.2-0.6,0.3-0.7
	c0.1-0.2,0.6-0.3,0.6-0.6c0-0.8-1.3-0.7-1.8-0.7c-0.3,0-0.1-0.2-0.1-0.3c0-0.4-0.3-0.9-0.3-1.5c0-0.2,0-0.3,0.1-0.5
	c0.3-0.1,0.7-0.1,1-0.1c1.4,0,1.4,1.1,2.9,1.1c0.6,0,0.4,0.7,0.8,0.8c0.7-0.2,0.3,0.5,1.4,0.5c0.3,0.1,0.2,1.4,0.5,1.7
	c0.1,0.1,0.6-0.1,0.8-0.1c0.1,0.4-0.5,0.5-0.5,0.8c1,0.2,1.1-0.7,1.4-1.4l0.5-0.2c0-0.4-0.2-0.7-0.2-1c0-0.4,0.3-0.3,0.3-0.7
	l0.1-0.5c0.3-0.1,0.7-0.1,1.1,0h0.3c0.1,0.3-0.2,0.6-0.2,1.1c0,0.7-0.6,0.3-0.8,0.3c-0.2,0-0.3,0.1-0.3,0.4c0,0.8,0.4,0.8,1.1,0.8
	c0.6,0,1,0.9,1,1.5c-2.3,1.7-4.8,2.9-7.6,3.5c-0.2,0.5,0.3,0.5,0.4,0.5c1.2,0,4.2-1.4,5.3-2l3.3-1.9c1.2-0.7,2.7-3.9,2.7-5.1
	c0-0.3-0.4-0.3-0.5-0.6c0.2-0.2,0.5-0.3,0.8-0.3c0.2,0,0.4,0,0.5,0.1l0.6,1.6l1.5,1.2c0,0.9-1.4,0.7-1.2,1.7
	c-0.2,0.1-0.4-0.2-0.7-0.2c-0.7,0-8.6,5.4-12.5,5.7c-0.1,0.5,0.2,0.5,0.4,0.5c3,0,5.7-2.4,8.3-3.5c1.3-0.5,2.6-0.8,4-1
	c0-0.1,0.2-0.4,0.2-0.5c0.8-0.2,1.2-0.8,1.7-1.4l1.1,1.1c-0.2,0-2.5,0-2.6,0.6l2.8,0.5c0.1,0.1,0.1,0.5,0.2,0.5
	c1.6,0.8,1.6,1.8,2.7,3.1c0,2,0.1,1.1,0.5,2.1c-0.4,0.3-0.6,0.8-0.6,1.3c0,0.9,0.4,1.8,0.4,2.8c-0.1-0.2-1.8-3.4-2.8-3.4
	c-0.2,0-0.2,0.2-0.2,0.4c0.1,0.8,0.7,1.4,1.4,1.6c0.3,1.5,1.8,2.5,2.3,3.9L93.9,49.1z M80.4,47.4l3.4-2.2c0.2,0.1,0.4,0.1,0.6,0.2
	c0.3-0.2,0.6-0.5,0.7-0.8l-3.5,0.8c-0.1,0.1-0.1,0.3-0.1,0.5c-0.9,0.4-2,0.2-2.8,1c0.5,0.2,0.8,0,1.2,0c0.2,0,0.4,0.1,0.5,0.2
	L80.4,47.4z M84,43.9c0.1,0,0.2,0,0.3,0c0.4,0,0.7,0.1,0.9-0.3c0-0.3-0.5-0.2-0.5-0.4l-0.1-0.4c-0.1-0.1-0.3-0.1-0.4-0.1
	c-0.3,0-0.4,0.1-0.5,0c-0.1,0.6,0.5,0.3,0.5,0.6L84,43.9z M79.9,45.1c0.2,0,0.5,0,0.7-0.1c0.9-0.1,2.1,0.1,2.7-0.8
	c0.3-0.1,0.4-0.1,0.5-0.2c-0.1-0.2-0.3-0.3-0.6-0.3c-0.2,0-0.3,0.1-0.5,0c-1,0.2-1.9,0.6-2.8,1.2V45.1z M76.2,44.1
	c1.7-0.4,2.4-1,3.8-1.4l3.2-1l-0.1-0.3c-0.5-0.2-1.1-0.3-1.6-0.4h-0.3c-0.1,0.2,0.1,0.3,0.1,0.5l-5.8,2.5
	C75.7,44,75.9,44.1,76.2,44.1 M68.3,49.1c0.1-0.1,0.1-0.3,0.1-0.5v-0.3c0-0.2-0.1-0.4-0.1-0.7c0-0.2,0.1-0.3,0.1-0.5
	c0.1,0.1,0.1-0.1,0.4,0.3c-0.2,0.3-0.2,0.8-0.2,1.2c0,0.1-0.1,0.3-0.1,0.4L68.3,49.1z M81,49.6c0.1-0.2,0.2-0.4,0.3-0.6
	c0.1-0.1,0.2-0.3,0.3-0.4c0.3-0.2,0.4-0.2,0.4-0.2C82.1,48.9,81.4,49.3,81,49.6L81,49.6z M93.2,50.5c-0.1-0.1-0.2-0.1-0.3-0.2
	l-0.2-0.4l0-0.4C92.9,49.7,93.3,50.1,93.2,50.5L93.2,50.5z M71.3,50.5l0.5-2.7l0.4-0.2l-0.6,1.8c0.2,0.1,0.4,0.2,0.4,0.2
	C71.9,50.1,71.7,50.2,71.3,50.5 M76.7,50.6l0.5-1.2c0,0.2,0.1,0.3,0.1,0.5c0,0.1,0,0.2-0.1,0.4C76.9,50.5,76.8,50.6,76.7,50.6
	 M63.5,51.2c0-0.3,0.1-0.3,0.1-0.4C63.8,51,63.6,51.1,63.5,51.2L63.5,51.2z M73.5,51.4c-0.1-0.1-0.1-0.3-0.1-0.4v-0.3
	c0-0.2,0.1-0.3,0.2-0.5l0.9-0.9l-0.8,2.1L73.5,51.4z M74.9,51.4c0-0.4,0.1-0.8,0.3-1.1c0.2,0.4,0.2,0.8-0.1,1.1H74.9z M69.5,51.6
	v-3.4c0.3,0.1,0.3,0.3,0.3,0.5c0,0.5-0.3,1-0.3,1.5c0,0.3,0.1,0.5,0.3,0.7C69.7,51.1,69.8,51.6,69.5,51.6L69.5,51.6z M70.8,52.6
	c-0.1-0.2-0.1-0.4-0.1-0.5c0-0.4,0.1-0.8,0.3-1.1l-0.1,1.6L70.8,52.6z M78.9,52.8c0-0.7,0.8-1.1,1.3-1.2c0.4-0.8,1.2-1.2,1.9-1.8
	c0.3-0.3,0.6-0.6,1-0.9c0.5,0,1.1,0,1.6,0c-0.7,0.8-1.5,2.5-2.7,2.7l0.4-1.1c-1.1-0.1-1.5,1.4-2.2,1.8
	C79.8,52.6,79.4,52.7,78.9,52.8L78.9,52.8z M49.3,47.7c4.1,3.8,5.7,7.5,8.6,11.9c-2.1-2.4-3.6-5.4-5.4-8.1
	C51.6,50.2,50.3,49.1,49.3,47.7L49.3,47.7z M72.1,53.6l-0.5-0.2l0.6-2.2L72.1,53.6z M93.6,54l-0.1-2.3c0.2,0.4,0.3,0.8,0.3,1.3v0.6
	c0,0.1,0,0.3,0,0.4H93.6z M67.7,54.8c-1.2-0.6-1.9-0.9-1.9-2.5c0.1-1.2,0.5-2.4,1-3.4l-0.1-0.5l-0.4-0.1l-0.6,1.5L64.8,49
	c-0.2-0.4,0-1-0.3-1.4c-0.4-0.5-0.7-0.1-1.1-1.1c-0.2-0.6-0.3-1.1-0.4-1.7c-0.3-0.6-0.8-1.1-1.3-1.5c0-0.2,0-0.5,0.2-0.5l0.8,0.2
	c0.4,0.1,1.3,1.3,1.7,1.3c0-0.3-0.2-0.5-0.2-0.6c0.6,0,0.6-0.3,0.7-0.3c0.1,0,0.5,0,0.5-0.1c0-0.3-0.5,0.1-0.5-0.8
	c0-0.2,0-0.4,0.1-0.6c0.4,0.2,1,0.6,1,1.1c0,1.3-0.5,2.6-0.5,4c0.3,0.3,0.7,0.6,1,0.8c0.4,0,0.3-1.1,0.4-1.4
	c0.5,0.5,0.7,1.1,0.6,1.8c0,0.1-0.1,1.4-0.1,1.5C67.3,49.9,67,50,67,50.2c0.1,1.1,0.1,2.2,0.1,3.2c0,0.4,0.5,0.9,0.8,1.2L67.7,54.8z
	 M59.5,44.4c0.5-0.2,0.9-0.3,1.4-0.4c0.2-0.1,0.3-0.4,0.5-0.4c0.2,0,0.2,0.8,0.4,0.9c-0.1,0.3-0.2,0.5-0.2,0.8
	c0,0.8,0.5,3.5,1.7,3.5c0.2,0,0.3,0.6,0.3,0.7c0,0.6-0.9,1.2-0.9,1.8c0,0.2,0,0.4,0.1,0.5c0.4,0,0.3,0.6,0.5,0.9
	c0.1,0.1,0.4,0.1,0.6,0.3c-1.2,0.4-2,1.5-1.9,2.7c0,0.5,0.1,0.9,0.2,1.4C61,58,60.4,59.3,59.2,60c-2.7-3.3-4.3-7.2-6.5-10.7
	c-0.7-1.1-2-1.7-2.5-2.9c1.2-2.1,5.2-1.6,5.1-4.7c1.9,2.5,5.6,8.1,6.6,10.9l0.9,0.4c-0.8-1.7-1.8-3.3-2.9-4.8
	c-1.4-2.3-2.6-4.6-4.1-6.8c2.4-1,3-1.2,3.1-3.8c1.1,0.3,1.5,2.1,2.3,2.9l0.2,2.2C60.8,43.2,60.1,43.7,59.5,44.4 M58.8,44.7
	c0.2,0,0.4-0.1,0.5-0.2c0.2-0.3-0.2-0.6-0.2-0.6c-0.1,0.1-0.2,0.3-0.3,0.4L58.8,44.7z M60.6,41.3c-0.1-0.1-0.2-0.1-0.3-0.1l-0.5,0.3
	c-0.2,0.1-0.3,0.5-0.4,0.7C59,42.4,59,42.6,59,42.6c-0.3-0.1-0.7,0.3-0.8,0.4c-0.1,0.3-0.2,0.5,0.1,0.6c0.2-0.2,0.4-0.3,0.6-0.4
	l0.3-0.3c0.2,0.1,0.5-0.4,0.6-0.5c0-0.1,0.3-0.3,0.3-0.3c0.2-0.1,0.3-0.1,0.4-0.3C60.7,41.8,60.7,41.3,60.6,41.3 M61.7,54.3
	c0.1-0.1,0.4-0.3,0.4-0.4c0-0.2-0.2-0.4-0.4-0.5c-0.3,0.2-0.6,0.5-0.9,0.7c-0.1,0.1-0.2,0.2-0.1,0.3c-0.1,0.3-0.1,0.4,0,0.4
	c0.4,0.1,0.6-0.4,0.9-0.5L61.7,54.3z M58.2,56.7c0,0.1,0,0.3,0,0.5c0.5-0.2,0.9-0.5,1.3-0.9c0.2-0.2,0.4-0.4,0.6-0.7
	c0-0.3,0-0.3-0.1-0.4l-0.4,0c-0.2,0-0.9,0.8-0.9,0.8C58.6,56,58.3,56.5,58.2,56.7 M58.7,54.6l-0.3-0.1c-0.2,0-0.4,0.1-0.5,0.3
	l-0.4,0.1c-0.2,0.1-0.3,0.3-0.4,0.5l0.2,0.4c0.4-0.2,0.7-0.4,1-0.7c0,0,0.5-0.2,0.6-0.4L58.7,54.6z M59,54.5l0.7-0.2
	c0.2-0.1,0.3-0.3,0.5-0.4l0.9-0.8c0.2-0.1,0.4-0.3,0.4-0.5c-0.3-0.2-0.6-0.1-0.9,0L60,53.1c-0.2,0.2-0.5,0.4-0.8,0.5
	c0,0-0.4,0.4-0.4,0.5L59,54.5z M56.7,54.6c0.3,0.1,0.8-0.4,0.8-0.4c0.4-0.1,1.3-1.2,1.2-1.3c-0.1-0.2-0.2-0.3-0.4-0.3
	c-0.1,0-0.3,0.5-0.3,0.6l-0.6,0.4c-0.4,0.3-0.8,0.5-0.8,0.8L56.7,54.6z M58.3,51.4c-0.5,0-0.9,0.2-1.2,0.5c-0.1,0.2-0.2,0.4-0.4,0.6
	c-0.3,0.1-0.7,0.2-0.8,0.5c-0.1,0.2-0.1,0.5,0,0.5l0.8-0.2c0.3-0.1,0.4-0.7,0.9-0.8c0.3-0.2,0.5-0.5,0.8-0.7
	C58.5,51.6,58.4,51.6,58.3,51.4L58.3,51.4z M60.7,51.4c-0.4-0.2-0.4-0.2-0.4-0.1c-0.3,0.2-0.6,0.3-0.9,0.4c0,0.3-0.1,0.3-0.1,0.4
	c-0.1,0.2-0.1,0.3,0,0.4c0.4,0,0.8-0.2,1.1-0.4c0.1-0.1,0.2-0.2,0.3-0.4L60.7,51.4z M55.3,52c0.2,0.4,0.2,0.4,0.3,0.4
	c0.3-0.2,0.5-0.4,0.7-0.6c0.3-0.2,0.5-0.4,0.7-0.6c0.2-0.1,0.3-0.2,0.4-0.3c0-0.2,0-0.3,0-0.3c-0.1-0.1-0.2-0.2-0.4-0.2
	c-0.2,0-0.4,0.2-0.5,0.4l-0.4,0.7c-0.1,0.1-0.4,0.1-0.6,0.3L55.3,52z M58.6,50.7c0.1,0.3,0.2,0.5,0.3,0.6c0.2-0.1,0.2-0.4,0.4-0.5
	c0.3-0.2,0.7-0.5,0.7-0.7c0-0.2-0.2-0.3-0.4-0.3c-0.1,0.1-0.4,0.4-0.5,0.5c-0.1,0.1-0.2,0.1-0.3,0.2L58.6,50.7z M58.1,50.2
	c0.2-0.1,0.4-0.2,0.6-0.3c0.2-0.1,0.4-0.3,0.6-0.4c0.1-0.1,0.2-0.2,0.3-0.3c-0.1-0.1-0.2-0.3-0.4-0.3c-0.2,0-0.7,0.3-0.7,0.5
	c-0.1,0.1-0.2,0.2-0.3,0.3C57.9,49.9,58.1,50,58.1,50.2 M56,49.9c-0.1-0.1-0.3-0.1-0.5,0c-0.4,0.3-0.7,0.6-1,0.9
	c-0.1,0.1-0.1,0.2,0,0.3c0.3,0.1,1-0.4,1.3-0.8c0.1-0.1,0.2-0.3,0.3-0.4L56,49.9z M56.4,49.8l0.4-0.1c0.5,0,0.3-0.9,0.9-1
	c0.1-0.2,0.5-0.3,0.5-0.3c0.3,0,0.4-0.4,0.5-0.4l-0.1-0.3c-0.2-0.1-0.4,0-0.4-0.1l-0.4,0.3l-0.5,0.5c-0.1,0.1-0.2,0.2-0.4,0.3
	c-0.1,0.1-0.3,0.2-0.4,0.3l-0.4,0.3c-0.1,0.2,0,0.5,0.1,0.7L56.4,49.8z M54.5,47.9c-0.2-0.3-0.4-0.2-0.4-0.1
	c-0.3,0.3-0.6,0.1-0.8,0.6c-0.3,0.4-0.3,0.5-0.2,0.6c0.1,0.1,0.3,0.1,0.4,0.1c0.2-0.2,0.4-0.3,0.5-0.5c0.2-0.1,0.3-0.2,0.4-0.3
	L54.5,47.9z M58,46.8c-0.2-0.3-0.2-0.3-0.3-0.4c-0.2,0.1-0.3,0-0.4,0.2c-0.1,0.4-0.7,0.3-0.7,0.5l-0.1,0.3l0.2,0.4
	c0.1,0,0.3-0.2,0.4-0.2c0.1-0.1,0.2-0.2,0.4-0.3c0.2-0.1,0.4-0.2,0.5-0.4L58,46.8z M54,50.2c0.1-0.2,0.3-0.4,0.4-0.5
	c0.2-0.2,0.5-0.4,0.8-0.5c0.2-0.1,0.3-0.3,0.5-0.5c0.1-0.4,0-0.6-0.2-0.6c-0.3,0.1-0.6,0.8-0.6,0.8c-0.2,0.2-0.8,0.1-0.8,0.5
	c-0.2,0.4-0.2,0.4-0.2,0.5C53.9,50,53.8,50.2,54,50.2 M55,47.8c0.2,0,0.2-0.2,0.4-0.2c0.4-0.3,0.7-0.3,0.7-0.5l1-1l0.3-0.4l-0.3-0.3
	c-0.2,0.1-0.3,0.2-0.4,0.3c-0.2,0.1-0.4,0.3-0.5,0.5c-0.5,0.4-0.7,0.7-0.8,0.7l-0.5,0.3c-0.1,0.3,0,0.3,0,0.3L55,47.8z M56.5,43.9
	c-0.2,0.1-0.8,0.7-0.8,0.7l-0.4,0.3c-0.2,0-0.6,0.1-0.7,0.3c0,0.3,0,0.4,0,0.4l0.1,0.4c0.3-0.2,0.6-0.4,0.8-0.6
	c0.2-0.1,0.4-0.3,0.6-0.5c0.2-0.2,0.5-0.2,0.6-0.6C56.6,44.1,56.5,44,56.5,43.9L56.5,43.9z M52.5,47.9l0.6-0.5
	c0.2-0.2,0.8-0.5,0.8-0.6c0.1-0.2,0.3-0.2,0.4-0.4L54.2,46c-0.2,0-0.9,0-0.9,0.3c-0.3,0.5-0.4,0.4-0.6,0.5l-0.2,0.4
	C52.2,47.7,52.3,47.9,52.5,47.9"/>
<path class="st0" d="M48.1,63.1l0,0.1l-1.5,0.4l-2.1-3.5l0.1-0.1l0.1,0.2c0.1,0.2,0.2,0.3,0.4,0.3c0.2,0,0.4-0.1,0.5-0.2l2.9-1.8
	c0.3-0.2,0.4-0.3,0.5-0.4c0-0.2,0-0.3-0.1-0.5L49,57.4l0.1-0.1l1.2,2.1l-0.1,0.1c-0.1-0.2-0.2-0.3-0.4-0.5c-0.1-0.1-0.2-0.1-0.3-0.1
	c-0.2,0.1-0.4,0.1-0.5,0.3l-2.9,1.7c-0.1,0.1-0.3,0.2-0.4,0.3l0,0.2c0.1,0.2,0.2,0.4,0.3,0.5l0.2,0.3c0.1,0.3,0.3,0.5,0.5,0.7
	c0.1,0.1,0.3,0.2,0.5,0.2C47.5,63.2,47.8,63.2,48.1,63.1"/>
<path class="st0" d="M53.7,64l0.1-0.1l1.3,1.4l-0.1,0.1l-0.1-0.1c-0.1-0.2-0.3-0.2-0.5-0.2c-0.2,0.1-0.3,0.2-0.5,0.3l-1.6,1.4
	c-0.3,0.3-0.7,0.5-1,0.7c-0.3,0.1-0.7,0.1-1,0c-0.4-0.1-0.8-0.4-1.1-0.7c-0.3-0.3-0.6-0.7-0.7-1.2c-0.1-0.3,0-0.7,0.2-1
	c0.2-0.4,0.5-0.7,0.9-1l1.5-1.4c0.2-0.1,0.3-0.3,0.4-0.5c0-0.2-0.1-0.3-0.2-0.4l-0.1-0.1l0.1-0.1l1.5,1.7l-0.1,0.1l-0.1-0.2
	c-0.1-0.1-0.3-0.2-0.5-0.2c-0.2,0.1-0.4,0.2-0.5,0.3l-1.7,1.6c-0.2,0.2-0.3,0.3-0.5,0.5c-0.1,0.2-0.3,0.4-0.3,0.6c0,0.2,0,0.4,0,0.6
	c0.1,0.2,0.2,0.4,0.4,0.6c0.2,0.2,0.5,0.4,0.8,0.5c0.3,0.1,0.5,0.1,0.8,0c0.4-0.2,0.7-0.4,1-0.7l1.6-1.4c0.2-0.2,0.4-0.4,0.4-0.5
	c0-0.2-0.1-0.3-0.2-0.5L53.7,64z"/>
<path class="st0" d="M55.8,68.9l-0.1,2c0,0.4,0,0.8,0,1.1c0.1,0.2,0.2,0.4,0.3,0.5L56,72.8l-1.8-1.4l0.1-0.1
	c0.1,0.1,0.2,0.1,0.3,0.2h0.2l0.1-0.1l0.1-0.2c0-0.1,0-0.3,0-0.4l0.1-1.6l-1.8,0.5c-0.1,0-0.2,0.1-0.4,0.1l-0.1,0.1l0,0.2
	c0.1,0.1,0.1,0.2,0.3,0.3L53,70.5l-1.5-1.1l0.1-0.1c0.1,0.1,0.2,0.1,0.3,0.1c0.2,0,0.4,0.1,0.5,0.1c0.2,0,0.5-0.1,0.7-0.1l2-0.5
	l0.1-1.9c0-0.4,0-0.7-0.1-1.1c-0.1-0.2-0.2-0.4-0.4-0.6l0.1-0.1l2,1.5l-0.1,0.1c-0.1-0.1-0.3-0.2-0.4-0.2c-0.1,0-0.2,0-0.2,0.1
	c-0.1,0.1-0.1,0.3-0.1,0.5l-0.1,1.5l1.5-0.4c0.1,0,0.2-0.1,0.3-0.1l0.1-0.1l0-0.1l0-0.2c-0.1-0.1-0.2-0.2-0.3-0.3l0.1-0.1l1.5,1.1
	L59,68.5c-0.1-0.1-0.2-0.1-0.3-0.2c-0.1,0-0.3-0.1-0.5,0c-0.3,0-0.5,0.1-0.7,0.2L55.8,68.9z"/>
<path class="st0" d="M63.2,70.8l-0.8,2l1.1,0.4c0.2,0.1,0.4,0.1,0.6,0.1c0.2-0.1,0.4-0.3,0.4-0.5l0.1,0.1L64,74.6l-0.1-0.1
	c0-0.2,0.1-0.3,0.1-0.5c0-0.1-0.1-0.2-0.1-0.3c-0.1-0.1-0.3-0.2-0.4-0.2l-1.1-0.4l-0.6,1.6c-0.1,0.1-0.1,0.3-0.1,0.4l0.1,0.2
	c0.1,0.1,0.2,0.1,0.3,0.1l0.8,0.3c0.2,0.1,0.4,0.1,0.6,0.2c0.2,0,0.3,0,0.5-0.1c0.3-0.1,0.5-0.3,0.7-0.5l0.1,0.1l-0.9,1.1L59.9,75
	l0.1-0.1l0.2,0.1c0.1,0,0.2,0.1,0.4,0c0.1,0,0.2,0,0.2-0.1c0.1-0.1,0.2-0.3,0.2-0.5l1.2-3.2c0.1-0.2,0.1-0.4,0.1-0.6
	c-0.1-0.2-0.2-0.3-0.4-0.3l-0.2-0.1l0.1-0.1l3.8,1.5l-0.4,1.1l-0.1-0.1c0-0.2,0.1-0.4,0-0.6c0-0.1-0.1-0.2-0.2-0.3
	c-0.2-0.1-0.3-0.2-0.5-0.3L63.2,70.8z"/>
<path class="st0" d="M70.4,72.5l-0.2,1.2l-0.1,0c0-0.2,0-0.3,0-0.5c0-0.2-0.1-0.3-0.3-0.4c-0.1-0.1-0.3-0.2-0.5-0.2l-0.7-0.1l-0.8,4
	c-0.1,0.2-0.1,0.4,0,0.6c0.1,0.1,0.2,0.2,0.4,0.2l0.2,0l0,0.1l-2.2-0.4l0-0.1l0.2,0c0.2,0.1,0.4,0,0.5-0.1c0.1-0.2,0.2-0.4,0.2-0.5
	l0.8-4l-0.6-0.1c-0.2,0-0.4-0.1-0.5,0c-0.2,0-0.3,0.1-0.4,0.2c-0.1,0.1-0.2,0.3-0.3,0.5l-0.1,0l0.3-1.2L70.4,72.5z"/>
<path class="st0" d="M78.8,72.3l0,0.1c-0.2,0-0.3,0.1-0.4,0.2c-0.2,0.2-0.3,0.4-0.3,0.6L76.6,78l-0.1,0l-2.4-4.4
	c-0.1-0.1-0.2-0.3-0.3-0.4c-0.1-0.1-0.2-0.1-0.3-0.2c-0.1,0-0.3-0.1-0.4-0.1l0-0.1l2.2-0.2l0,0.1c-0.2,0-0.3,0.1-0.5,0.2
	c-0.1,0.1-0.1,0.2-0.1,0.2c0,0.2,0.1,0.4,0.2,0.6l1.6,3l1-3.2c0.1-0.2,0.1-0.4,0.1-0.6l-0.1-0.2c-0.1-0.1-0.3-0.1-0.4-0.1l-0.1,0
	l0-0.1L78.8,72.3z"/>
<path class="st0" d="M80.3,72.2l0.5,2l1.1-0.3c0.2,0,0.4-0.1,0.6-0.3c0.1-0.2,0.1-0.5,0.1-0.7l0.1,0l0.5,1.8l-0.1,0
	c-0.1-0.2-0.1-0.3-0.2-0.5c-0.1-0.1-0.2-0.1-0.3-0.2c-0.2,0-0.3,0-0.5,0.1l-1.1,0.3l0.5,1.7c0,0.1,0.1,0.3,0.1,0.4l0.1,0.1
	c0.1,0,0.2,0,0.3,0l0.9-0.2c0.2-0.1,0.4-0.1,0.6-0.2c0.1-0.1,0.2-0.2,0.3-0.3c0.1-0.3,0.2-0.5,0.3-0.8l0.2,0l-0.1,1.4l-4,1.1l0-0.1
	l0.2-0.1c0.1,0,0.2-0.1,0.3-0.2l0.1-0.2c0-0.2,0-0.3-0.1-0.5L79.8,73c0-0.2-0.1-0.4-0.3-0.6c-0.2-0.1-0.3-0.1-0.5,0l-0.2,0l0-0.1
	l4-1.1l0.4,1.1l-0.1,0c-0.1-0.2-0.2-0.4-0.3-0.5c-0.1-0.1-0.2-0.1-0.3-0.2c-0.2,0-0.4,0-0.6,0.1L80.3,72.2z"/>
<path class="st0" d="M90.3,73.7L89,74.3l-2.7-1.5c-0.1,0.1-0.2,0.1-0.3,0.1l-0.1,0l-0.1,0l0.7,1.4c0.1,0.3,0.3,0.5,0.4,0.5
	c0.2,0.1,0.3,0,0.5,0l0.2-0.1l0.1,0.1l-2.1,1l-0.1-0.1l0.2-0.1c0.2-0.1,0.3-0.2,0.3-0.4c0-0.2-0.1-0.4-0.2-0.6l-1.5-3.1
	c-0.1-0.3-0.3-0.5-0.4-0.5c-0.2-0.1-0.3,0-0.5,0l-0.2,0.1l-0.1-0.1l1.8-0.8c0.4-0.2,0.8-0.3,1.2-0.4c0.3,0,0.6,0,0.8,0.1
	c0.3,0.1,0.5,0.3,0.6,0.6c0.1,0.3,0.2,0.6,0.1,0.9c-0.1,0.4-0.4,0.7-0.7,0.9l1.6,0.9c0.3,0.2,0.6,0.3,0.9,0.4c0.2,0,0.5,0,0.7-0.1
	L90.3,73.7z M85.7,72.8l0.1-0.1l0.1,0c0.4-0.1,0.7-0.4,0.9-0.8c0.1-0.3,0.1-0.6,0-0.9c-0.1-0.3-0.3-0.5-0.6-0.6
	c-0.3-0.1-0.6-0.1-0.9,0.1c-0.2,0.1-0.4,0.2-0.5,0.3L85.7,72.8z"/>
<path class="st0" d="M92.6,72l0.1,0.1l-1.9,1.2l-0.1-0.1l0.2-0.1c0.2-0.1,0.3-0.2,0.3-0.4c0-0.2-0.1-0.4-0.2-0.6L89,69.3
	c-0.1-0.2-0.2-0.3-0.3-0.4c-0.1,0-0.1-0.1-0.2-0.1c-0.1,0-0.2,0-0.4,0.1L87.9,69l-0.1-0.1l1.9-1.2l0.1,0.1l-0.2,0.1
	c-0.2,0.1-0.3,0.2-0.3,0.4c0,0.2,0.1,0.4,0.2,0.6l1.9,2.9c0.1,0.2,0.2,0.3,0.3,0.4c0.1,0,0.2,0.1,0.2,0.1c0.1,0,0.2,0,0.3-0.1
	L92.6,72z"/>
<path class="st0" d="M93.5,64.5l0.8,0.9l-0.1,0.1c-0.1-0.1-0.2-0.2-0.4-0.3c-0.1-0.1-0.3-0.1-0.5,0c-0.2,0-0.3,0.1-0.5,0.3l-0.6,0.5
	l2.6,3.1c0.2,0.3,0.4,0.4,0.5,0.4c0.2,0,0.3,0,0.5-0.2l0.1-0.1l0.1,0.1l-1.7,1.5l-0.1-0.1l0.1-0.1c0.2-0.1,0.2-0.3,0.2-0.5
	c-0.1-0.2-0.2-0.4-0.3-0.5l-2.6-3.1l-0.5,0.4c-0.1,0.1-0.3,0.2-0.4,0.4c-0.1,0.1-0.1,0.3-0.1,0.4c0,0.2,0.1,0.4,0.2,0.6L91,68.3
	l-0.8-1L93.5,64.5z"/>
<path class="st0" d="M98,64.7l-1.3,1.6l0.4,0.8c0.1,0.1,0.2,0.3,0.3,0.4c0.1,0.1,0.2,0.1,0.2,0.1c0.2-0.1,0.3-0.2,0.4-0.3l0.1,0.1
	l-1.1,1.3L97,68.5c0.1-0.1,0.1-0.3,0.2-0.4c0-0.3-0.2-0.6-0.3-0.8L94.7,63l0.1-0.1l4.6,1.4c0.3,0.1,0.5,0.1,0.8,0.1
	c0.2,0,0.3-0.1,0.5-0.3l0.1,0.1l-1.4,1.6l-0.1-0.1c0.1-0.1,0.2-0.2,0.2-0.4c0-0.1,0-0.2-0.1-0.2c-0.2-0.1-0.3-0.2-0.5-0.2L98,64.7z
	 M97.7,64.6l-2.2-0.7l1.1,2.1L97.7,64.6z"/>
<path class="st0" d="M98.1,58.2l1.6,1l-0.1,0.1c-0.3-0.1-0.6-0.2-0.9-0.2c-0.2,0-0.5,0.1-0.7,0.2c-0.2,0.1-0.4,0.3-0.5,0.5
	c-0.1,0.2-0.2,0.5-0.1,0.7c0,0.2,0.2,0.4,0.3,0.5c0.1,0.1,0.3,0.1,0.5,0.1c0.5-0.1,0.9-0.3,1.3-0.6c0.3-0.2,0.7-0.4,1.1-0.5
	c0.2-0.1,0.4-0.1,0.6-0.1c0.2,0,0.4,0.1,0.6,0.2c0.3,0.2,0.6,0.6,0.6,1c0.1,0.4,0,0.9-0.3,1.3c-0.1,0.1-0.2,0.2-0.3,0.4
	c-0.1,0.1-0.2,0.2-0.4,0.4c-0.1,0.1-0.3,0.2-0.4,0.3l0,0.2c0,0.1,0.1,0.1,0.2,0.2l-0.1,0.1l-1.5-1l0.1-0.1c0.3,0.1,0.6,0.2,0.9,0.2
	c0.2,0,0.5-0.1,0.7-0.2c0.2-0.1,0.4-0.3,0.6-0.6c0.2-0.2,0.2-0.5,0.2-0.8c0-0.2-0.2-0.4-0.4-0.6c-0.1-0.1-0.3-0.1-0.4-0.1
	c-0.2,0-0.3,0-0.5,0.1c-0.1,0-0.4,0.2-0.9,0.4c-0.3,0.2-0.7,0.4-1,0.5c-0.2,0.1-0.4,0.1-0.7,0.1c-0.2,0-0.4-0.1-0.6-0.2
	c-0.3-0.2-0.5-0.5-0.6-0.9c-0.1-0.4,0-0.8,0.2-1.2c0.2-0.3,0.4-0.5,0.7-0.7c0.1-0.1,0.2-0.1,0.2-0.2l0-0.2c0-0.1-0.1-0.2-0.2-0.2
	L98.1,58.2z"/>
<path class="st0" d="M37.7,43.1c0,20.2,16.4,36.7,36.7,36.7c20.2,0,36.7-16.4,36.7-36.7c0-20.2-16.4-36.7-36.7-36.7
	C54.2,6.4,37.7,22.8,37.7,43.1C37.7,43.1,37.7,43.1,37.7,43.1 M37,43.1C37,22.4,53.7,5.7,74.4,5.7c20.7,0,37.4,16.7,37.4,37.4
	c0,20.7-16.7,37.4-37.4,37.4c0,0,0,0,0,0C53.7,80.5,37,63.8,37,43.1"/>
<path class="st0" d="M40.7,38.7l2.8,0.2l0,0.2c-0.5,0-0.9,0.1-1.3,0.3c-0.3,0.2-0.6,0.4-0.8,0.7c-0.2,0.3-0.3,0.7-0.4,1.1
	c0,0.4,0.1,0.8,0.3,1.1c0.2,0.3,0.5,0.5,0.8,0.5c0.3,0,0.5-0.1,0.7-0.2c0.5-0.5,1-1,1.4-1.7c0.3-0.5,0.7-1,1.1-1.5
	c0.2-0.3,0.5-0.5,0.8-0.6c0.3-0.1,0.6-0.2,1-0.1c0.6,0.1,1.2,0.4,1.5,0.9c0.4,0.5,0.6,1.2,0.5,1.9c0,0.2-0.1,0.4-0.1,0.7
	c-0.1,0.3-0.2,0.5-0.3,0.8c-0.1,0.2-0.2,0.5-0.3,0.7c0,0.1,0,0.2,0.1,0.3c0.1,0.1,0.2,0.1,0.4,0.2l0,0.2L46,44l0-0.2
	c0.5,0,0.9-0.1,1.4-0.3c0.3-0.2,0.6-0.4,0.8-0.7c0.2-0.4,0.4-0.8,0.4-1.2c0.1-0.4,0-0.9-0.3-1.2c-0.2-0.3-0.5-0.5-0.9-0.5
	c-0.2,0-0.4,0-0.6,0.1c-0.2,0.1-0.4,0.3-0.6,0.5c-0.3,0.4-0.6,0.8-0.9,1.2c-0.3,0.5-0.7,1-1.1,1.4c-0.2,0.3-0.5,0.5-0.8,0.6
	c-0.3,0.1-0.6,0.2-1,0.1c-0.6,0-1.1-0.3-1.5-0.8c-0.4-0.5-0.6-1.1-0.5-1.8c0.1-0.5,0.2-0.9,0.4-1.4c0.1-0.1,0.2-0.3,0.2-0.5
	c0-0.1,0-0.2-0.1-0.3c-0.1-0.1-0.2-0.2-0.4-0.2L40.7,38.7z"/>
<path class="st0" d="M48.4,32.3l-1.2,3l1,1c0.2,0.2,0.4,0.3,0.6,0.5c0.1,0,0.3,0,0.4,0c0.2-0.2,0.4-0.4,0.5-0.6l0.2,0.1l-1,2.4
	l-0.2-0.1c0.1-0.2,0.1-0.5,0-0.7c-0.2-0.4-0.5-0.8-0.8-1.1l-5.2-5.2l0.1-0.2l7.4-0.1c0.4,0,0.8,0,1.2-0.2c0.2-0.1,0.4-0.4,0.5-0.6
	l0.2,0.1l-1.2,3l-0.2-0.1c0.1-0.2,0.1-0.4,0.1-0.7c0-0.1-0.1-0.2-0.2-0.3c-0.3-0.1-0.6-0.1-0.9-0.1L48.4,32.3z M47.9,32.3l-3.6,0
	l2.5,2.6L47.9,32.3z"/>
<path class="st0" d="M45.8,25.1l1.5-1.7l8,0.4l-3.5-3.2c-0.4-0.3-0.6-0.5-0.8-0.5c-0.3,0-0.5,0.1-0.7,0.4L50,20.8l-0.2-0.1l1.9-2.1
	l0.2,0.1l-0.2,0.2c-0.2,0.2-0.3,0.5-0.3,0.8c0.1,0.3,0.3,0.5,0.6,0.7l5.2,4.6l-0.1,0.2l-8.5-0.4l3.8,3.4c0.2,0.2,0.5,0.4,0.8,0.5
	c0.3,0,0.5-0.1,0.7-0.4L54,28l0.2,0.2l-1.9,2.1l-0.2-0.1l0.2-0.2c0.2-0.2,0.3-0.5,0.3-0.8c-0.1-0.3-0.3-0.5-0.6-0.7l-4.3-3.8
	c-0.3,0-0.5,0-0.8,0c-0.4,0.1-0.7,0.3-0.9,0.6L45.8,25.1z"/>
<path class="st0" d="M59.6,13.3l1.1,1.6l-0.2,0.1c-0.1-0.2-0.3-0.4-0.5-0.5c-0.2-0.1-0.5-0.2-0.7-0.2c-0.3,0-0.6,0.1-0.8,0.3l-1,0.6
	l3.2,5.4c0.3,0.4,0.5,0.7,0.6,0.7c0.3,0.1,0.5,0,0.7-0.1l0.2-0.1l0.1,0.2l-3,1.8l-0.1-0.2l0.3-0.1c0.3-0.1,0.4-0.4,0.5-0.6
	c0-0.3-0.2-0.6-0.3-0.8l-3.2-5.4l-0.8,0.5c-0.2,0.1-0.5,0.3-0.7,0.5c-0.1,0.2-0.2,0.4-0.2,0.7c0,0.3,0.1,0.6,0.2,0.9l-0.2,0.1
	l-0.9-1.7L59.6,13.3z"/>
<path class="st0" d="M66.1,11.1c1-0.3,2.1-0.1,3,0.5c1,0.6,1.6,1.5,1.9,2.6c0.3,1.1,0.2,2.3-0.4,3.3c-1.1,1.9-3.5,2.6-5.5,1.5
	c0,0-0.1,0-0.1-0.1c-1-0.6-1.6-1.6-1.9-2.7c-0.3-1.2-0.1-2.4,0.5-3.4C64.2,11.9,65.1,11.3,66.1,11.1 M66.1,11.5
	c-0.7,0.1-1.2,0.6-1.5,1.2c-0.4,1-0.4,2.1-0.1,3.1c0.2,1.1,0.8,2.1,1.6,2.8c0.5,0.4,1.2,0.6,1.9,0.4c0.7-0.2,1.3-0.7,1.6-1.3
	c0.4-0.9,0.4-2,0-2.9c-0.2-1.1-0.7-2.1-1.6-2.8C67.5,11.5,66.8,11.4,66.1,11.5"/>
<path class="st0" d="M82.6,11.3l-0.2,1.9l-0.2,0c0-0.3,0-0.5-0.1-0.7c-0.1-0.2-0.2-0.4-0.4-0.6c-0.2-0.2-0.5-0.3-0.8-0.3l-1.1-0.2
	l-1,6.2c-0.1,0.3-0.1,0.6,0,1c0.2,0.2,0.4,0.3,0.7,0.4l0.3,0l0,0.2l-3.4-0.5l0-0.2l0.3,0c0.3,0.1,0.6,0,0.8-0.2
	c0.2-0.3,0.3-0.6,0.3-0.9l1-6.2l-1-0.2c-0.3-0.1-0.5-0.1-0.8,0c-0.2,0.1-0.4,0.2-0.6,0.4c-0.2,0.2-0.3,0.5-0.4,0.8l-0.2,0l0.4-1.9
	L82.6,11.3z"/>
<path class="st0" d="M89.4,14c0.9,0.5,1.6,1.4,1.9,2.4c0.3,1.1,0.2,2.3-0.4,3.2c-0.5,1-1.4,1.8-2.5,2.2c-2.1,0.7-4.3-0.4-5-2.5
	c0-0.1,0-0.1-0.1-0.2c-0.3-1.1-0.1-2.3,0.4-3.3c0.5-1.1,1.5-1.9,2.7-2.2C87.4,13.3,88.5,13.5,89.4,14 M89.1,14.3
	c-0.6-0.3-1.3-0.4-1.9-0.1c-0.9,0.5-1.7,1.3-2.1,2.2c-0.6,0.9-0.8,2-0.7,3.1c0.1,0.7,0.5,1.2,1.2,1.5c0.6,0.4,1.4,0.4,2.1,0.1
	c0.9-0.5,1.6-1.2,2-2.2c0.6-0.9,0.9-2.1,0.7-3.2C90.2,15.2,89.7,14.6,89.1,14.3"/>
<path class="st0" d="M92.7,27l3.3-6.9l-4.2,3.5c-0.4,0.3-0.6,0.6-0.6,0.7c0,0.3,0.1,0.5,0.3,0.7l0.2,0.2l-0.2,0.1l-1.8-2.2l0.2-0.1
	l0.2,0.2c0.2,0.2,0.4,0.4,0.7,0.4c0.3-0.1,0.6-0.3,0.8-0.5l4.1-3.5c0.2-0.2,0.4-0.4,0.5-0.6c0.1-0.1,0.1-0.3,0-0.4
	c-0.1-0.2-0.2-0.5-0.4-0.6l0.2-0.1l1.5,1.8l-3,6.4l6.8-1.9l1.5,1.8l-0.2,0.1l-0.2-0.2c-0.2-0.2-0.4-0.4-0.7-0.4
	c-0.3,0.1-0.6,0.3-0.8,0.5l-4.1,3.5c-0.4,0.3-0.6,0.6-0.6,0.7c0,0.3,0.1,0.5,0.3,0.7l0.2,0.2l-0.2,0.1l-2.3-2.7l0.2-0.1l0.2,0.2
	c0.2,0.2,0.4,0.4,0.7,0.4c0.3-0.1,0.6-0.3,0.8-0.5l4.2-3.5l-7.3,2L92.7,27z"/>
<path class="st0" d="M100.7,36.1l-1-3l-1.4-0.1c-0.2,0-0.5,0-0.7,0c-0.1,0-0.2,0.1-0.3,0.3c0,0.3,0,0.5,0.1,0.8l-0.2,0.1l-0.8-2.5
	l0.2-0.1c0.1,0.2,0.2,0.4,0.4,0.6c0.4,0.2,0.9,0.3,1.3,0.3l7.3,0.7l0.1,0.2l-5.6,4.8c-0.3,0.3-0.6,0.6-0.8,0.9
	c-0.1,0.3-0.1,0.6,0,0.8l-0.2,0.1l-1-3.1l0.2-0.1c0.1,0.2,0.2,0.4,0.4,0.6c0.1,0.1,0.3,0.1,0.4,0.1c0.3-0.1,0.5-0.3,0.7-0.5
	L100.7,36.1z M101.1,35.8l2.7-2.4l-3.6-0.3L101.1,35.8z M108.5,35.2l-2.5-1.1l-0.1-0.2l2.2,0L108.5,35.2z"/>
<path class="st0" d="M107.4,45.2l-2.8,0l0-0.2c0.5-0.1,0.9-0.2,1.3-0.4c0.3-0.2,0.6-0.5,0.8-0.8c0.2-0.3,0.3-0.7,0.3-1.1
	c0-0.4-0.1-0.8-0.4-1c-0.2-0.3-0.5-0.4-0.9-0.4c-0.3,0-0.5,0.1-0.7,0.3c-0.5,0.5-0.9,1.1-1.2,1.8c-0.3,0.6-0.6,1.1-0.9,1.6
	c-0.2,0.3-0.5,0.5-0.8,0.7c-0.3,0.2-0.6,0.2-0.9,0.2c-0.6,0-1.2-0.2-1.6-0.7c-0.5-0.5-0.7-1.2-0.7-1.9c0-0.2,0-0.5,0-0.7
	c0.1-0.3,0.1-0.5,0.2-0.8c0.1-0.2,0.1-0.5,0.2-0.7c0-0.1,0-0.2-0.1-0.2c-0.1-0.1-0.2-0.1-0.4-0.1v-0.2l2.8,0v0.2
	c-0.5,0.1-0.9,0.2-1.3,0.4c-0.3,0.2-0.6,0.5-0.7,0.8c-0.2,0.4-0.3,0.8-0.3,1.2c0,0.4,0.1,0.9,0.4,1.2c0.2,0.3,0.6,0.4,1,0.4
	c0.2,0,0.4-0.1,0.6-0.2c0.2-0.1,0.4-0.3,0.6-0.5c0.3-0.4,0.5-0.9,0.7-1.3c0.3-0.5,0.6-1,0.9-1.5c0.2-0.3,0.5-0.5,0.8-0.7
	c0.3-0.2,0.6-0.2,0.9-0.2c0.6,0,1.1,0.2,1.5,0.7c0.4,0.5,0.7,1.1,0.7,1.7c0,0.5-0.1,1-0.3,1.4c-0.1,0.2-0.1,0.3-0.1,0.5
	c0,0.1,0,0.2,0.1,0.3c0.1,0.1,0.2,0.1,0.4,0.2L107.4,45.2z"/>
<path class="st0" d="M74.4,84.5c-22.9,0-41.4-18.5-41.4-41.4S51.5,1.7,74.4,1.7c22.9,0,41.4,18.5,41.4,41.4c0,0,0,0,0,0
	C115.8,66,97.2,84.5,74.4,84.5 M74.4,4.2c-21.5,0-38.9,17.4-39,38.9c0,21.5,17.4,38.9,38.9,39c21.5,0,38.9-17.4,39-38.9c0,0,0,0,0,0
	C113.3,21.6,95.8,4.2,74.4,4.2"/>
<path class="st0" d="M95.2,47.5l-0.8-0.2c2.4-11.2-4.7-22.1-15.9-24.5c-1.4-0.3-2.8-0.5-4.3-0.5c-10.1,0-18.7,7.3-20.3,17.2
	l-0.8-0.1c2-11.7,13-19.6,24.7-17.6C88.1,23.6,95.6,32.6,95.6,43C95.6,44.5,95.5,46.1,95.2,47.5"/>
<path class="st0" d="M64.9,62.1l-0.2,0c-1.7-0.9-3.2-1.9-4.6-3.2c-0.2-0.1-0.2-0.4,0-0.6c0.1-0.2,0.4-0.2,0.6,0
	c1.4,1.2,2.9,2.2,4.5,3.1c0.2,0.1,0.3,0.3,0.2,0.5c0,0,0,0,0,0C65.2,62,65,62.1,64.9,62.1"/>
<path class="st0" d="M7.4,182.7v-0.2h2.5v0.2H9.6c-0.3,0-0.5,0.1-0.6,0.3c-0.1,0.2-0.1,0.5-0.1,0.7v2.8c0,0.5-0.1,1.1-0.2,1.6
	c-0.2,0.4-0.4,0.8-0.8,1c-0.5,0.3-1.1,0.4-1.6,0.4c-0.6,0-1.2-0.1-1.7-0.4c-0.4-0.3-0.7-0.6-0.8-1.1c-0.1-0.6-0.2-1.1-0.2-1.7v-2.7
	c0-0.3,0-0.6-0.2-0.8c-0.2-0.1-0.4-0.2-0.6-0.2H2.4v-0.2h3v0.2H5.2c-0.2,0-0.5,0.1-0.6,0.3c-0.1,0.2-0.2,0.5-0.1,0.8v3
	c0,0.3,0,0.6,0.1,0.9c0,0.3,0.1,0.6,0.3,0.8c0.1,0.2,0.3,0.4,0.6,0.5c0.3,0.1,0.6,0.2,0.9,0.2c0.4,0,0.8-0.1,1.2-0.3
	c0.3-0.2,0.6-0.4,0.7-0.8c0.2-0.5,0.2-1,0.2-1.6v-2.8c0-0.3,0-0.6-0.1-0.8c-0.2-0.2-0.4-0.2-0.6-0.2L7.4,182.7z"/>
<path class="st0" d="M9.8,182.5h1.9l4.2,5.2v-4c0-0.3,0-0.6-0.1-0.8c-0.2-0.2-0.4-0.2-0.6-0.2H15v-0.2h2.4v0.2h-0.2
	c-0.2,0-0.5,0.1-0.6,0.3c-0.1,0.2-0.1,0.5-0.1,0.7v5.8h-0.2l-4.6-5.6v4.3c0,0.3,0,0.6,0.1,0.8c0.2,0.2,0.4,0.2,0.6,0.2h0.2v0.2h-2.4
	v-0.2h0.2c0.2,0,0.5-0.1,0.6-0.3c0.1-0.2,0.1-0.5,0.1-0.7v-4.8c-0.1-0.2-0.3-0.3-0.5-0.5c-0.1-0.1-0.3-0.2-0.5-0.2
	c-0.1,0-0.3,0-0.4,0L9.8,182.5z"/>
<path class="st0" d="M20.7,189.3v0.2h-3v-0.2H18c0.2,0,0.5-0.1,0.6-0.2c0.1-0.2,0.2-0.5,0.1-0.8v-4.5c0-0.2,0-0.5-0.1-0.7
	c0-0.1-0.1-0.2-0.2-0.2c-0.1-0.1-0.3-0.1-0.5-0.1h-0.2v-0.2h3v0.2h-0.2c-0.2,0-0.5,0.1-0.6,0.2c-0.1,0.2-0.2,0.5-0.1,0.8v4.5
	c0,0.2,0,0.5,0.1,0.7c0,0.1,0.1,0.2,0.2,0.2c0.1,0.1,0.3,0.1,0.5,0.1L20.7,189.3z"/>
<path class="st0" d="M28.4,182.5v0.2c-0.2,0-0.4,0.1-0.6,0.2c-0.2,0.2-0.4,0.5-0.5,0.8l-2.4,5.9h-0.2l-2.6-6
	c-0.1-0.2-0.2-0.4-0.3-0.6c-0.1-0.1-0.2-0.2-0.3-0.2c-0.2-0.1-0.3-0.1-0.5-0.1v-0.2h2.8v0.2c-0.2,0-0.4,0.1-0.6,0.2
	c-0.1,0.1-0.1,0.2-0.1,0.3c0,0.3,0.1,0.5,0.2,0.8l1.8,4.1l1.6-4c0.1-0.3,0.2-0.5,0.2-0.8c0-0.1-0.1-0.2-0.1-0.3
	c-0.1-0.1-0.3-0.2-0.5-0.2c0,0-0.1,0-0.1,0v-0.2L28.4,182.5z"/>
<path class="st0" d="M30.7,182.9v2.7h1.5c0.3,0,0.6,0,0.8-0.2c0.2-0.2,0.3-0.5,0.3-0.8h0.2v2.4h-0.2c0-0.2-0.1-0.4-0.1-0.6
	c-0.1-0.1-0.2-0.2-0.3-0.3c-0.2-0.1-0.4-0.1-0.6-0.1h-1.5v2.3c0,0.2,0,0.4,0,0.6c0,0.1,0.1,0.1,0.1,0.2c0.1,0,0.3,0.1,0.4,0.1h1.2
	c0.3,0,0.6,0,0.9-0.1c0.2-0.1,0.4-0.2,0.5-0.3c0.3-0.3,0.5-0.6,0.6-1h0.2l-0.6,1.7h-5.3v-0.2H29c0.2,0,0.3,0,0.5-0.1
	c0.1,0,0.2-0.1,0.2-0.3c0.1-0.2,0.1-0.4,0.1-0.7v-4.5c0-0.3,0-0.6-0.1-0.8c-0.2-0.2-0.4-0.2-0.6-0.2h-0.2v-0.2h5.3l0.1,1.5h-0.2
	c0-0.3-0.1-0.5-0.2-0.7c-0.1-0.1-0.2-0.3-0.4-0.3c-0.2-0.1-0.5-0.1-0.7-0.1L30.7,182.9z"/>
<path class="st0" d="M41.6,189.5h-1.9l-2.3-3.2c-0.2,0-0.3,0-0.4,0h-0.1c0,0-0.1,0-0.2,0v2c0,0.3,0,0.6,0.1,0.8
	c0.2,0.2,0.4,0.2,0.6,0.2h0.3v0.2h-3v-0.2H35c0.2,0,0.5-0.1,0.6-0.3c0.1-0.2,0.1-0.5,0.1-0.8v-4.5c0-0.3,0-0.6-0.1-0.8
	c-0.2-0.2-0.4-0.2-0.6-0.2h-0.3v-0.2h2.5c0.5,0,1.1,0,1.6,0.2c0.4,0.1,0.7,0.3,0.9,0.6c0.2,0.3,0.4,0.6,0.4,1c0,0.4-0.1,0.8-0.4,1.1
	c-0.4,0.4-0.8,0.6-1.3,0.7l1.4,2c0.2,0.3,0.5,0.7,0.8,0.9c0.3,0.2,0.6,0.3,0.9,0.3L41.6,189.5z M36.7,185.9c0.1,0,0.1,0,0.2,0H37
	c0.5,0,1.1-0.1,1.5-0.4c0.3-0.3,0.5-0.7,0.5-1.1c0-0.4-0.1-0.8-0.4-1.1c-0.3-0.3-0.7-0.4-1.1-0.4c-0.3,0-0.5,0-0.8,0.1L36.7,185.9z"
	/>
<path class="st0" d="M49.5,189.3v0.2h-3v-0.2h0.2c0.2,0,0.5-0.1,0.6-0.2c0.1-0.2,0.1-0.5,0.1-0.8v-4.5c0-0.2,0-0.5-0.1-0.7
	c0-0.1-0.1-0.2-0.2-0.2c-0.1-0.1-0.3-0.1-0.5-0.1h-0.2v-0.2h3v0.2h-0.2c-0.2,0-0.5,0.1-0.6,0.2c-0.1,0.2-0.2,0.5-0.1,0.8v4.5
	c0,0.2,0,0.5,0.1,0.7c0,0.1,0.1,0.2,0.2,0.2c0.1,0.1,0.3,0.1,0.5,0.1L49.5,189.3z"/>
<path class="st0" d="M50.1,189.5v-0.2h0.3c0.2,0,0.5-0.1,0.6-0.3c0.1-0.2,0.1-0.5,0.1-0.8v-4.5c0-0.3,0-0.6-0.1-0.8
	c-0.2-0.2-0.4-0.2-0.6-0.2h-0.3v-0.2h2.8c0.8,0,1.6,0.1,2.4,0.4c0.5,0.2,1,0.7,1.3,1.2c0.3,0.6,0.5,1.2,0.5,1.9
	c0,0.9-0.3,1.8-0.9,2.4c-0.8,0.8-1.9,1.2-3,1.1L50.1,189.5z M52.1,189c0.4,0.1,0.7,0.1,1.1,0.1c0.7,0,1.5-0.3,2-0.8
	c1-1.3,1-3.2,0-4.5c-0.5-0.6-1.3-0.9-2-0.8c-0.4,0-0.7,0.1-1,0.1V189z"/>
<path class="st0" d="M61.2,187.1h-2.7l-0.5,1.1c-0.1,0.2-0.2,0.4-0.2,0.6c0,0.1,0.1,0.2,0.1,0.3c0.2,0.1,0.4,0.2,0.6,0.2v0.2h-2.2
	v-0.2c0.2,0,0.4-0.1,0.6-0.2c0.3-0.3,0.4-0.6,0.6-1l2.4-5.7h0.2l2.4,5.8c0.1,0.3,0.3,0.6,0.5,0.9c0.2,0.1,0.4,0.2,0.7,0.2v0.2h-2.7
	v-0.2c0.2,0,0.4,0,0.6-0.1c0.1-0.1,0.1-0.2,0.1-0.3c0-0.2-0.1-0.5-0.2-0.7L61.2,187.1z M61,186.8l-1.2-2.8l-1.2,2.8H61z"/>
<path class="st0" d="M63.8,189.5v-0.2h0.3c0.2,0,0.5-0.1,0.6-0.3c0.1-0.2,0.1-0.5,0.1-0.8v-4.5c0-0.3,0-0.6-0.1-0.8
	c-0.2-0.2-0.4-0.2-0.6-0.2h-0.3v-0.2h2.8c0.8,0,1.6,0.1,2.4,0.4c0.5,0.2,1,0.7,1.3,1.2c0.3,0.6,0.5,1.2,0.5,1.9
	c0,0.9-0.3,1.8-0.9,2.4c-0.8,0.8-1.9,1.2-3,1.1L63.8,189.5z M65.8,189c0.4,0.1,0.7,0.1,1.1,0.1c0.7,0,1.5-0.3,2-0.8
	c1-1.3,1-3.2,0-4.5c-0.5-0.6-1.3-0.9-2-0.8c-0.4,0-0.7,0.1-1,0.1V189z"/>
<path class="st0" d="M45.8,182.4l0.2,2.3h-0.3c-0.1-0.3-0.2-0.6-0.4-0.9c-0.2-0.3-0.4-0.5-0.7-0.7c-0.3-0.2-0.6-0.3-0.9-0.3
	c-0.3,0-0.7,0.1-0.9,0.4c-0.1,0.2-0.2,0.4-0.2,0.6c0,0.2,0.1,0.5,0.2,0.7c0.4,0.4,0.9,0.8,1.4,1c0.4,0.2,0.9,0.5,1.2,0.9
	c0.2,0.1,0.3,0.3,0.4,0.5c0.1,0.3,0.2,0.6,0.2,0.9c0,0.5-0.2,1-0.5,1.3c-0.4,0.4-1,0.7-1.6,0.6c-0.2,0-0.4,0-0.6-0.1
	c-0.2,0-0.4-0.1-0.6-0.2c-0.2-0.1-0.3-0.1-0.5-0.1c-0.1,0-0.2,0-0.2,0.1c0,0.1-0.1,0.2-0.1,0.2h-0.2l-0.3-2.3h0.2
	c0.1,0.4,0.3,0.8,0.6,1.1c0.2,0.2,0.4,0.4,0.7,0.6c0.3,0.2,0.6,0.2,0.9,0.2c0.4,0,0.7-0.1,0.9-0.4c0.2-0.2,0.3-0.5,0.3-0.8
	c0-0.2-0.1-0.4-0.2-0.6c-0.1-0.1-0.2-0.2-0.3-0.3c-0.3-0.2-0.6-0.5-0.9-0.7c-0.6-0.3-1.1-0.6-1.5-1c-0.1-0.1-0.3-0.3-0.3-0.5
	c-0.1-0.2-0.2-0.5-0.2-0.7c0-0.5,0.2-0.9,0.5-1.3c0.4-0.4,0.9-0.6,1.5-0.6c0.4,0,0.8,0.1,1.2,0.3c0.1,0,0.2,0.1,0.3,0.1
	c0.1,0,0.2,0,0.2-0.1c0.1-0.1,0.1-0.2,0.1-0.3L45.8,182.4z"/>
<path class="st0" d="M84.6,187.1h-2.7l-0.5,1.1c-0.1,0.2-0.2,0.4-0.2,0.6c0,0.1,0.1,0.2,0.1,0.3c0.2,0.1,0.4,0.2,0.7,0.2v0.2h-2.2
	v-0.2c0.2,0,0.4-0.1,0.6-0.2c0.3-0.3,0.4-0.6,0.6-1l2.4-5.7h0.2l2.4,5.8c0.1,0.3,0.3,0.6,0.5,0.9c0.2,0.1,0.4,0.2,0.7,0.2v0.2h-2.7
	v-0.2c0.2,0,0.4,0,0.6-0.1c0.1-0.1,0.1-0.2,0.1-0.3c0-0.2-0.1-0.5-0.2-0.7L84.6,187.1z M84.4,186.8l-1.2-2.8l-1.2,2.8H84.4z"/>
<path class="st0" d="M86.8,182.5h1.9l4.2,5.2v-4c0-0.3,0-0.6-0.1-0.8c-0.2-0.2-0.4-0.2-0.6-0.2H92v-0.2h2.4v0.2h-0.2
	c-0.2,0-0.5,0.1-0.6,0.3c-0.1,0.2-0.1,0.5-0.1,0.7v5.8h-0.2l-4.6-5.6v4.3c0,0.3,0,0.6,0.1,0.8c0.2,0.2,0.4,0.2,0.6,0.2h0.2v0.2h-2.4
	v-0.2h0.2c0.2,0,0.5-0.1,0.6-0.3c0.1-0.2,0.1-0.5,0.1-0.7v-4.8c-0.1-0.2-0.3-0.3-0.5-0.5c-0.1-0.1-0.3-0.2-0.5-0.2
	c-0.1,0-0.3,0-0.4,0L86.8,182.5z"/>
<path class="st0" d="M100.6,182.5l0.1,1.6h-0.2c0-0.2-0.1-0.4-0.2-0.6c-0.1-0.2-0.2-0.3-0.4-0.4c-0.2-0.1-0.5-0.2-0.7-0.1h-1v5.3
	c0,0.3,0,0.6,0.1,0.8c0.2,0.2,0.4,0.2,0.6,0.2h0.2v0.2h-2.9v-0.2h0.2c0.2,0,0.5-0.1,0.6-0.3c0.1-0.2,0.1-0.5,0.1-0.7V183h-0.8
	c-0.2,0-0.5,0-0.7,0.1c-0.2,0.1-0.3,0.2-0.5,0.4c-0.1,0.2-0.2,0.5-0.2,0.7h-0.2l0.1-1.6L100.6,182.5z"/>
<path class="st0" d="M104.5,182.4c0.9,0,1.7,0.4,2.3,1c0.7,0.7,1,1.6,1,2.6c0,1-0.3,1.9-1,2.6c-0.6,0.7-1.5,1.1-2.4,1
	c-0.9,0-1.8-0.4-2.4-1c-0.7-0.7-1-1.7-1-2.6c0-1,0.4-2,1.1-2.7C102.8,182.7,103.6,182.4,104.5,182.4 M104.4,182.8
	c-0.6,0-1.1,0.2-1.5,0.7c-0.5,0.7-0.8,1.6-0.7,2.5c-0.1,0.9,0.2,1.8,0.7,2.6c0.4,0.5,0.9,0.7,1.5,0.7c0.6,0,1.2-0.3,1.6-0.8
	c0.5-0.7,0.7-1.6,0.6-2.4c0.1-0.9-0.2-1.9-0.7-2.7C105.6,183,105,182.7,104.4,182.8"/>
<path class="st0" d="M79.1,182.4l0.2,2.3h-0.3c-0.1-0.3-0.2-0.6-0.4-0.9c-0.2-0.3-0.4-0.5-0.7-0.7c-0.3-0.2-0.6-0.3-0.9-0.3
	c-0.3,0-0.6,0.1-0.9,0.4c-0.1,0.2-0.2,0.4-0.2,0.6c0,0.2,0.1,0.5,0.2,0.7c0.4,0.4,0.9,0.8,1.4,1c0.4,0.2,0.9,0.5,1.2,0.9
	c0.2,0.1,0.3,0.3,0.4,0.5c0.1,0.3,0.2,0.6,0.2,0.9c0,0.5-0.2,1-0.5,1.3c-0.4,0.4-1,0.7-1.6,0.6c-0.2,0-0.4,0-0.6-0.1
	c-0.2,0-0.4-0.1-0.6-0.2c-0.2-0.1-0.3-0.1-0.5-0.1c-0.1,0-0.2,0-0.2,0.1c0,0.1-0.1,0.2-0.1,0.2h-0.2l-0.3-2.3H75
	c0.1,0.4,0.3,0.8,0.6,1.1c0.2,0.2,0.4,0.4,0.7,0.6c0.3,0.2,0.6,0.2,0.9,0.2c0.4,0,0.7-0.1,0.9-0.4c0.2-0.2,0.3-0.5,0.3-0.8
	c0-0.2-0.1-0.4-0.2-0.6c-0.1-0.1-0.2-0.2-0.3-0.3c-0.3-0.2-0.6-0.5-0.9-0.7c-0.5-0.3-1.1-0.6-1.5-1c-0.1-0.1-0.3-0.3-0.3-0.5
	c-0.1-0.2-0.2-0.5-0.2-0.7c0-0.5,0.2-0.9,0.5-1.3c0.4-0.4,0.9-0.6,1.5-0.6c0.4,0,0.8,0.1,1.2,0.3c0.1,0,0.2,0.1,0.3,0.1
	c0.1,0,0.2,0,0.2-0.1c0.1-0.1,0.1-0.2,0.1-0.3L79.1,182.4z"/>
<path class="st0" d="M116.8,182.5l0.1,1.6h-0.2c0-0.2-0.1-0.4-0.2-0.6c-0.1-0.2-0.2-0.3-0.4-0.4c-0.2-0.1-0.5-0.2-0.7-0.1h-1v5.3
	c0,0.3,0,0.6,0.1,0.8c0.2,0.2,0.4,0.2,0.6,0.2h0.2v0.2h-2.9v-0.2h0.2c0.2,0,0.5-0.1,0.6-0.3c0.1-0.2,0.1-0.5,0.1-0.7V183h-0.8
	c-0.2,0-0.5,0-0.7,0.1c-0.2,0.1-0.3,0.2-0.5,0.4c-0.1,0.2-0.2,0.5-0.2,0.7h-0.2l0.1-1.6L116.8,182.5z"/>
<path class="st0" d="M120.8,182.4c0.9,0,1.7,0.4,2.3,1c0.7,0.7,1,1.6,1,2.6c0,1-0.3,1.9-1,2.6c-1.3,1.3-3.4,1.4-4.7,0.1
	c0,0-0.1-0.1-0.1-0.1c-0.7-0.7-1-1.7-1-2.6c0-1,0.4-2,1.1-2.7C119.1,182.7,119.9,182.4,120.8,182.4 M120.7,182.8
	c-0.6,0-1.1,0.2-1.5,0.7c-0.5,0.7-0.8,1.6-0.7,2.5c-0.1,0.9,0.2,1.8,0.7,2.6c0.4,0.5,0.9,0.7,1.5,0.7c0.6,0,1.2-0.3,1.6-0.8
	c0.5-0.7,0.7-1.6,0.6-2.4c0.1-0.9-0.2-1.9-0.7-2.7C121.9,183,121.3,182.7,120.7,182.8"/>
<path class="st0" d="M128.5,189.5l-2.7-5.8v4.6c0,0.3,0,0.6,0.1,0.8c0.2,0.2,0.4,0.2,0.6,0.2h0.2v0.2h-2.4v-0.2h0.2
	c0.2,0,0.5-0.1,0.6-0.3c0.1-0.2,0.1-0.5,0.1-0.7v-4.5c0-0.2,0-0.5-0.1-0.7c-0.1-0.1-0.2-0.2-0.3-0.2c-0.2-0.1-0.4-0.1-0.6-0.1v-0.2
	h2l2.5,5.4l2.5-5.4h2v0.2h-0.2c-0.2,0-0.5,0.1-0.6,0.3c-0.1,0.2-0.1,0.5-0.1,0.7v4.5c0,0.3,0,0.6,0.1,0.8c0.2,0.2,0.4,0.2,0.6,0.2
	h0.2v0.2h-2.9v-0.2h0.2c0.2,0,0.5-0.1,0.6-0.3c0.1-0.2,0.1-0.5,0.1-0.7v-4.6l-2.7,5.8L128.5,189.5z"/>
<path class="st0" d="M138,187.1h-2.7l-0.5,1.1c-0.1,0.2-0.2,0.4-0.2,0.6c0,0.1,0.1,0.2,0.1,0.3c0.2,0.1,0.4,0.2,0.7,0.2v0.2h-2.2
	v-0.2c0.2,0,0.4-0.1,0.6-0.2c0.3-0.3,0.4-0.6,0.6-1l2.4-5.7h0.2l2.4,5.8c0.1,0.3,0.3,0.6,0.5,0.9c0.2,0.1,0.4,0.2,0.7,0.2v0.2H138
	v-0.2c0.2,0,0.4,0,0.6-0.1c0.1-0.1,0.1-0.2,0.1-0.3c0-0.2-0.1-0.5-0.2-0.7L138,187.1z M137.9,186.8l-1.2-2.8l-1.2,2.8H137.9z"/>
<path class="st0" d="M145.4,182.4l0.2,2.3h-0.3c-0.1-0.3-0.2-0.6-0.4-0.9c-0.4-0.6-1-0.9-1.6-0.9c-0.3,0-0.6,0.1-0.9,0.4
	c-0.1,0.2-0.2,0.4-0.2,0.6c0,0.2,0.1,0.5,0.2,0.7c0.4,0.4,0.9,0.8,1.4,1c0.4,0.2,0.9,0.5,1.2,0.9c0.2,0.1,0.3,0.3,0.4,0.5
	c0.1,0.3,0.2,0.6,0.2,0.9c0,0.5-0.2,1-0.5,1.3c-0.4,0.4-1,0.7-1.6,0.6c-0.2,0-0.4,0-0.6-0.1c-0.2,0-0.4-0.1-0.6-0.2
	c-0.2-0.1-0.3-0.1-0.5-0.1c-0.1,0-0.2,0-0.2,0.1c0,0.1-0.1,0.2-0.1,0.2h-0.2l-0.3-2.3h0.3c0.1,0.4,0.3,0.8,0.6,1.1
	c0.2,0.2,0.4,0.4,0.7,0.6c0.3,0.2,0.6,0.2,0.9,0.2c0.4,0,0.7-0.1,0.9-0.4c0.2-0.2,0.3-0.5,0.3-0.8c0-0.2-0.1-0.4-0.2-0.6
	c-0.1-0.1-0.2-0.2-0.3-0.3c-0.3-0.2-0.6-0.5-0.9-0.7c-0.6-0.3-1.1-0.6-1.5-1c-0.1-0.1-0.3-0.3-0.3-0.5c-0.1-0.2-0.2-0.5-0.2-0.7
	c0-0.5,0.2-0.9,0.5-1.3c0.4-0.4,0.9-0.6,1.5-0.6c0.4,0,0.8,0.1,1.2,0.3c0.1,0,0.2,0.1,0.3,0.1c0.1,0,0.2,0,0.2-0.1
	c0.1-0.1,0.1-0.2,0.1-0.3L145.4,182.4z"/>
<rect x="2.5" y="175.6" class="st0" width="143.4" height="1.2"/>
<path class="st0" d="M41.5,115v-1.5h19.6v1.5H59c-2-0.1-4,1-5,2.7c-0.6,0.8-0.9,2.8-0.9,5.9V146c0,5.5-0.6,9.9-1.7,12.9
	c-1.3,3.3-3.5,6-6.5,7.9c-3.2,2.2-7.6,3.3-13.1,3.3c-6,0-10.6-1-13.7-3.1c-3.1-2-5.4-5-6.6-8.4c-0.9-2.4-1.3-7-1.3-13.6v-21.6
	c0-3.4-0.5-5.6-1.4-6.7c-1.2-1.2-2.9-1.8-4.5-1.6H2.2v-1.5H26v1.5h-2.1c-2.3,0-3.9,0.7-4.9,2.2c-0.7,1-1,3-1,6.1v24.1
	c0,2.5,0.2,4.9,0.6,7.4c0.2,2.3,1,4.5,2.2,6.5c1.1,1.6,2.7,3,4.4,3.8c2.2,1.1,4.7,1.6,7.2,1.5c3.4,0.1,6.7-0.8,9.7-2.4
	c2.6-1.3,4.6-3.4,5.8-6c1.1-2.5,1.6-6.6,1.6-12.5v-22.4c0-3.5-0.4-5.6-1.1-6.5c-1.2-1.3-3-1.9-4.7-1.8H41.5z"/>
<path class="st0" d="M93.3,112.8l1.9,17.7h-2c-0.6-2.4-1.6-4.8-2.8-7c-2.8-4.5-7.6-7.2-12.9-7.3c-2.6,0-5.1,1.1-6.8,3.1
	c-1,1.3-1.5,2.8-1.4,4.4c-0.1,1.9,0.6,3.8,1.8,5.3c2,2.4,4.8,4.2,11.2,8c3.5,2,6.7,4.2,9.7,6.8c1.3,1.2,2.5,2.5,3.4,4
	c1.2,2.1,1.7,4.4,1.7,6.8c0.1,3.9-1.4,7.6-4.2,10.3c-3.4,3.3-8,5.2-12.8,5.1c-1.6,0-3.2-0.1-4.7-0.4c-1.7-0.3-3.4-0.8-5-1.4
	c-1.3-0.5-2.6-0.9-4-1.1c-0.7,0-1.3,0.3-1.7,0.9c-0.4,0.6-0.6,1.3-0.7,1.9h-1.8l-2.5-17.7h2c1,3.1,2.6,6,4.6,8.5
	c1.4,1.8,3.2,3.4,5.3,4.4c2.2,1.2,4.8,1.9,7.3,1.8c2.8,0,5.4-1,7.4-3c1.7-1.7,2.6-4.1,2.5-6.5c0-1.7-0.4-3.3-1.2-4.7
	c-0.5-1-1.2-1.9-2-2.7c-2.4-1.9-4.8-3.7-7.5-5.2c-6.6-4.2-9.2-5.3-12.1-8.2c-1.1-1.1-2.1-2.4-2.7-3.8c-0.9-1.7-1.3-3.6-1.2-5.5
	c-0.1-3.7,1.3-7.2,3.7-9.9c3-3.1,7.2-4.8,11.5-4.6c3,0,6.1,1.1,9.5,2.3c0.7,0.3,1.5,0.5,2.3,0.5c0.6,0,1.3-0.2,1.7-0.6
	c0.5-0.6,0.8-1.4,1-2.2L93.3,112.8z"/>
<path class="st0" d="M145.5,113.5l0.6,13h-1.5c-0.1-1.7-0.6-3.3-1.2-4.9c-0.7-1.5-1.9-2.7-3.4-3.5c-1.7-0.8-3.6-1.2-5.5-1.1h-7.8
	v42.2c0,3.4,0.4,5.5,1.1,6.4c1.3,1.2,3,1.9,4.8,1.7h1.9v1.5H111v-1.5h2c2.3,0,4-0.7,5-2.1c0.6-0.9,0.9-2.9,0.9-6v-42.2h-6.6
	c-1.9-0.1-3.7,0.1-5.5,0.6c-1.5,0.6-2.8,1.6-3.6,3c-1.1,1.8-1.7,3.8-1.8,5.9h-1.6l0.6-13L145.5,113.5z"/>
<polygon class="st0" points="139.7,180.8 138.2,182.5 138,182.5 138.5,180.8 "/>
<path class="st0" d="M140.9,164.6c-0.5,0.5-0.7,1.1-0.7,1.7c0,0.7,0.2,1.3,0.7,1.7c1,1,2.5,1,3.5,0c0,0,0,0,0,0
	c0.5-0.5,0.7-1.1,0.7-1.7c0-1.4-1.1-2.5-2.4-2.5C142,163.9,141.3,164.2,140.9,164.6 M144.6,168.4c-1.1,1.1-2.9,1.1-4,0
	c-1.1-1.1-1.1-2.9,0-4c1.1-1.1,2.9-1.1,4,0c0.5,0.5,0.8,1.3,0.8,2C145.5,167.1,145.2,167.9,144.6,168.4 M143.1,165.3
	c-0.2-0.1-0.4-0.1-0.7-0.1H142v1.1h0.5c0.2,0,0.4,0,0.5-0.1c0.2-0.1,0.3-0.3,0.3-0.5C143.4,165.6,143.3,165.4,143.1,165.3
	 M142.6,164.8c0.3,0,0.6,0,0.9,0.1c0.3,0.1,0.5,0.4,0.5,0.8c0,0.2-0.1,0.5-0.3,0.6c-0.1,0.1-0.3,0.1-0.5,0.2c0.2,0,0.4,0.1,0.5,0.3
	c0.1,0.1,0.2,0.3,0.2,0.5v0.2c0,0.1,0,0.2,0,0.2c0,0.1,0,0.1,0,0.2l0,0h-0.5c0,0,0,0,0,0c0,0,0,0,0,0l0-0.1v-0.2
	c0-0.3-0.1-0.5-0.3-0.7c-0.2-0.1-0.4-0.1-0.6-0.1H142v1.2h-0.6v-3.1L142.6,164.8z"/>
</svg>
