<?xml version="1.0" encoding="UTF-8"?>
<svg width="1753px" height="616px" viewBox="0 0 1753 616" version="1.1" xmlns="http://www.w3.org/2000/svg" xmlns:xlink="http://www.w3.org/1999/xlink">
    <title>logo-santo-tomas-horizontal</title>
    <g id="Page-1" stroke="none" stroke-width="1" fill="none" fill-rule="evenodd">
        <g id="logo-santo-tomas-horizontal" fill="#004136">
            <g>
                <path d="M245.5,465.4 L243.9,466.9 C243.9,466.9 244.8,469 245.2,469.2 C245.5,469.3 258.4,477.9 258.4,477.9 L258.8,476.1 L260.5,477.1 C260.5,477.1 260.9,474.3 260.9,473.7 C260.9,473.1 257.2,470 256.5,469 C255.9,467.9 245.5,465.4 245.5,465.4" id="Path" fill-rule="nonzero"></path>
                <path d="M0,307.7 C0,137.8 137.8,0 307.7,0 C477.6,0 615.3,137.7 615.3,307.7 C615.3,477.6 477.6,615.3 307.7,615.3 C137.8,615.3 0,477.6 0,307.7 M18.1,307.7 C18.1,467.7 147.7,597.3 307.7,597.3 C467.6,597.3 597.2,467.7 597.2,307.7 C597.2,147.7 467.6,18.1 307.7,18.1 C147.7,18.1 18.1,147.7 18.1,307.7" id="Shape" fill-rule="nonzero"></path>
                <path d="M30.1,307.7 C30.1,154.4 154.4,30.1 307.7,30.1 C461,30.1 585.2,154.3 585.2,307.7 C585.2,461 461,585.3 307.7,585.3 C154.4,585.3 30.1,461 30.1,307.7 M38.4,307.7 C38.4,456.5 159,577 307.7,577 C456.4,577 577,456.5 577,307.7 C577,158.9 456.4,38.3 307.7,38.3 C158.9,38.3 38.4,158.9 38.4,307.7" id="Shape" fill-rule="nonzero"></path>
                <path d="M320.3,270.7 C322.9,268.1 325.8,266.1 328.1,263.4 C329.7,261.6 330.9,259.7 332.2,257.7 C332.7,256.8 333.1,255.7 335.4,255 C335.4,258.4 332.3,263.1 330.5,264.7 C328.6,266.4 322.6,270 320.3,270.7 M388.1,309.1 C388.2,307.2 389.9,306 390.1,305.4 C389.7,302.7 385.4,305.3 385.9,300.7 C386.7,300.8 387.4,300.4 389.8,300.4 C390.8,300.4 392.1,300.9 393,301.2 L393.5,303.9 C393.8,305.4 397.4,304.1 397.5,306.7 C395.8,309.4 393.5,308.9 390.7,308.9 C389.8,309 388.9,309.2 388.1,309.1 M360.5,335.5 L360.5,332.8 C359.4,332 358.2,331.3 356.8,331.3 C353.8,331.3 351.1,333 348.1,332.8 C353.6,326 361.9,327.3 368.9,324.1 C369.4,322.9 369.1,321.2 369.8,320.3 L396.7,313.9 C395.2,316.6 393.8,318.2 391.2,320 C389.8,319.3 387.9,319.1 386.6,318.4 L360.5,335.5 Z M328.7,310.5 C327.5,310.5 325.9,310.3 324.5,310.3 C323.5,310.3 322.4,309.7 322.6,308.6 L367.3,290 C367.3,288.9 366.2,288.1 366.2,287.1 L369.2,286.4 C373.8,286.4 377.3,288.8 381.6,289.7 L382.3,292.3 L357.6,300.1 C347,303.3 342.1,307.2 328.7,310.5 M356.6,317.8 L356.6,316 C362.2,312.4 369.7,309.3 376.4,309.5 L378,307.2 C379.2,307.3 380.5,306.8 381.7,306.8 C383.4,306.8 385.4,307.5 386.2,309.1 C385.6,310.3 384.8,310.2 382.5,310.8 C377.9,317.8 369.1,316.2 362,317 C360.3,317.2 358.2,318 356.6,317.8 M325.4,208.8 C322.8,207.5 321.1,208.5 318.6,207.8 C318.2,207.2 318,205.9 318,205.2 C318,203.2 319.3,201.6 320.9,200.6 L323.4,200.9 L328.9,208.3 L325.4,208.8 Z M217.6,387.7 L216.4,387.7 C214,388.1 212.5,391.9 209.7,392.2 C209.2,391.1 209.1,390.7 209.6,388.4 C209.6,387.9 209,386.8 210.5,385.8 C211.3,385.8 216.6,381.2 216.5,381.1 C218.4,380.8 220.4,382.6 220.6,383.5 C220.6,385.7 218.5,387.3 217.6,387.7 M190.7,405.7 C191.4,404.5 193.7,400.7 195.1,400.7 C195.3,400.7 200.2,394.7 201.9,394.5 C202.3,394.8 202.7,395.1 204.6,394.8 C204.9,395.1 205.4,395.2 205.1,397.5 C204.5,398.9 202.2,401.7 201,402.5 C201,402.5 195.1,408 190.8,409.2 C190.7,408.3 190.1,407.6 190.7,405.7 M179.1,389.9 L178.6,388.1 C178.6,385.3 181.5,384.2 184.4,381.7 C184.4,381.7 188.9,378.8 189,378.6 C189.2,377.9 190.7,374.3 191.4,374.3 C193.1,374.3 193.6,375.7 194.6,376.9 C195.1,378.1 188.6,386.6 185.4,387 C185.2,386.7 181.1,390.7 179.1,389.9 M209.8,366.1 L209.8,367.2 C209,368.5 208,369.9 207,370.6 C205.5,371.8 200.8,373.9 198.8,373.7 C198.4,373.3 198.3,372.5 199.1,370.9 L199.6,368 C201.9,367.1 204.5,366.6 207.4,363.9 C208.2,363.9 208.8,366.3 209.8,366.1 M189.5,356.6 C189.5,355 188.6,354.8 189.6,352 C190.3,351.6 191,351 192.1,349.7 C191.9,348.2 196,346 197.3,345.9 C199,345.9 199.1,347.6 200.1,348.3 C199.8,348.9 199.6,349.6 198.1,350.9 C196.8,352 195,352.9 193.6,353.9 C192.9,354.7 192.2,355.6 189.5,356.6 M168.4,370.5 L169.9,368.9 C171.3,367.7 173.7,367.7 174.6,366.7 L177.6,361.6 C178.3,360.1 179.5,358.5 181.5,358.5 C183.1,358.5 183.4,358.7 184.6,359.8 C184.7,360 185.3,360.6 185,362.3 C184.4,363.3 182.6,364.3 181.7,364.9 C179.7,366.2 178.1,367.8 176,369.4 C174.4,370.6 173.1,372.1 170.8,373.7 C169.8,373.8 169.8,373.2 168.4,370.5 M189.3,330.9 L189.3,332 C188.6,332.7 187,334.4 185.2,334.9 C184.6,335.3 184.3,336.1 182.5,337.4 C181.8,337.7 180,339.3 179.5,339.3 L177.8,336.6 L178.5,334.2 C178.5,331.8 183.2,332.6 184.3,330.1 C184.5,328.1 185.8,328.4 188.2,328.9 L189.3,330.9 Z M158.5,357 C156.9,357 157.4,355.3 157.3,352.6 L158.5,350.4 C158.8,347.7 163.5,348.5 164.7,346.6 C164.7,346.6 167.4,341.3 169.5,340.7 C170.7,340.8 171.9,342.1 173.2,344.3 L171,345.4 C170.7,345.6 169.6,348.1 167.5,349.4 C166.6,349.2 162.3,351.9 160.7,354.5 C160.2,355.1 159.6,356 158.5,357 M177.2,309.4 C177.6,309.9 178.3,310.7 179.2,312.2 C178.3,314.9 176.1,315 174.5,316.5 C174.5,316.5 171.6,319.6 170.4,319.6 C169.5,320.9 167.1,322.8 165.2,324.2 C164,324.6 163.8,324.3 162.9,323.4 C162.8,322.7 162.6,322.1 163.1,320.7 L162.9,318.7 C163.7,317.2 166.5,316.7 168,316.7 L170.8,314.6 C170.8,314.6 175.6,310.5 177.2,309.4 M146.5,339.6 C145.3,339.6 144.7,337.6 144.6,336.7 C145,335.8 145.8,335.1 146.8,333.3 C146.8,332.9 148.3,331.2 148.4,331.3 C150.3,330.6 151.1,330.9 152.8,329.5 C153.1,329.6 153.2,328.1 153.2,327.4 C153.2,325.1 158.2,325.3 160.9,326.2 L160.4,328.5 C159.9,329.8 158.3,329.4 157.4,331.2 C157.4,332.1 153,334.9 151.3,336.1 C149.8,337 148.3,337.9 146.5,339.6 M209.1,289.3 C209.6,289.6 209.5,293.1 209.5,293.1 C208.8,293.6 207.3,295.4 205.7,295.7 C205.3,295.7 203,296.9 203.2,297.8 C202.4,298.7 199.7,302.4 198.6,302.2 L195.9,304.1 C194.8,304.7 192.2,305.8 191.7,307 C189.3,306.3 189.7,304.8 190.5,302.2 C191.5,301.2 194.5,298 197.2,297.4 C198,296.8 198.6,296.4 199.2,295.6 C200.1,294.4 201.2,291 202.5,290.6 C202.7,291.2 206.1,288.2 206.6,288.2 C207.2,288.2 209.1,289.1 209.1,289.3 M195.2,315.5 C195,315.3 194.3,313.3 195.5,312.1 C196,311.9 197.1,310.6 198.1,309.4 C198.1,309.4 200.7,311.5 199.3,313.9 C198.8,314.4 196.8,315.8 195.2,315.5 M162.4,339.5 L162.4,340.6 C161.8,341.4 159.8,343.2 159.3,343.3 C157.9,344 157.6,345 156.9,345.7 C155.7,346.4 154.8,347.2 154.5,347.4 C154.4,347.2 153.2,347.8 152,348.4 L150.8,345.5 C152.2,344.7 153.2,344.3 153.2,343.3 C154.5,338.8 157,340.3 159.1,338.4 C159.2,338 160.9,337.4 162.4,339.5 M166,338.4 C165.7,338.4 165.1,336.1 165,335.8 C164.2,335.4 164.2,335.1 165.1,333.4 C165.3,333.3 168.5,331.1 169,331.1 C170,331.1 171.5,328.9 172.7,328.1 C172.7,327.7 175.7,327.4 175.1,326.1 C175.3,325.4 177.6,322.5 177.9,322.7 C178.8,321.6 180.2,320.5 180.7,320.1 C181.6,320 181.7,319.7 183.3,320 C183.5,320.5 183.8,320.8 184.6,322.5 C183.7,323.6 182.9,324.1 182.4,325.1 C182,325.2 174.8,332.5 174.8,332.7 C174.8,334 172.4,334.5 171.2,334.8 C170.8,334.9 169.6,336.5 169.1,336.5 C167.6,336.5 167.2,338.4 166,338.4 M173.4,354.5 L173.8,355.6 C173.2,356.5 172.5,357.6 171.7,358.5 C169.3,361.2 163.8,365 161.7,364.7 C161.3,364.2 161.1,362.5 161.1,362.5 C162,361.6 166.3,356.7 169.9,354.8 C170.3,354.3 171.5,353.6 173.4,354.5 M176.8,353.7 L175.6,354.3 C175.2,354.3 174.1,351.7 174,351.6 C173.7,351.1 173.8,351 174.7,349.3 C175.1,349 177.4,346.9 177.4,346.9 C178.2,346.5 179,346.4 180.8,344.8 C181.6,344.2 182.6,343.7 183.5,343.1 C183.8,342.3 186.9,338.5 187.5,338.6 C188.4,337.7 189.5,336.9 190.4,336 C190.5,336.2 191.6,335.5 193.4,336.5 L194.3,339 C193.4,339.4 192.3,342.2 190.7,342.6 C190.3,342.5 187.4,343.6 186.7,344.8 C182.1,346 183.4,352.6 179.5,352.6 C179,352.6 176.9,353.1 176.8,353.7 M193.4,360.6 L194.3,359.5 C195.6,358.3 196.7,357.9 197.4,357.2 C198.3,356.3 200.8,354.3 201.4,353.5 C202.9,353.5 204.6,353.8 204.6,355.5 C204.1,357.3 201.4,359.5 200,360.6 C197.5,362.1 197.3,364.5 196.1,365 C195,364.6 194.2,362.4 193.4,360.6 M191.6,366.2 C192.3,367 192.4,367.3 191.7,369.5 C189.8,370.6 185.7,373.9 185.4,374.4 C181.9,375 180.8,380.1 178.8,380.5 L176,381.9 C175.1,381.6 174.2,381.2 173.7,381.7 C172.1,381.9 172.2,380 173.3,378.8 C173.5,376.7 177,375.5 178.4,374.4 C180.2,373.9 181.3,372.7 182.3,370.4 C184,368.1 188.5,366.1 191.6,366.2 M196.6,389 C196.2,388.2 195.8,387.6 195.6,386.7 C195.1,385.3 198.5,382 198.5,382 C200.8,381.3 202.4,379.6 204.5,378.4 C204.9,378.2 208.2,374.1 208.6,374.2 C209.2,373.3 212.3,372.4 213.3,372.4 C214.2,372.4 215.4,372.8 215.6,373.8 C215.6,375.2 213.8,377 212.7,377.7 C212.3,377.5 205.5,383.5 205.5,383.8 C204.4,385.2 203.6,386.3 202,387.1 L196.6,389 Z M194.5,389.9 C195.4,390.8 196,391.5 195.8,392.2 C195.2,393.2 191.4,394.7 191.4,394.7 C190.7,395.4 185.7,399.5 185.5,399.6 L182.6,399.2 C182.2,398.4 181.8,397.5 181.8,396.7 C181.8,395.3 183.3,393.2 184.5,392.5 L187.8,391.5 C188.1,390.6 191.2,389.3 191.9,389.3 L194.5,389.9 Z M136.3,293.7 C143.6,205.6 217.4,136.4 307.4,136.4 C402.2,136.4 479.1,213.2 479.1,308 C479.1,336.9 476,357.5 463.2,381.6 C462.4,387 462,401.5 462,407.1 C462,407.1 461.5,417.1 454.2,435.4 C451.7,441.8 447.9,446.6 442.4,452.6 C432.5,463.3 423.8,466.4 408.1,472.5 C407.1,472.9 399,474.5 399,474 C398.3,473.4 394.9,474.2 394.9,474.2 C389.2,475.5 388.9,477.5 382.5,478.9 C376.7,480.1 369.9,479.4 363.2,481.2 C350.3,484.5 344.5,487 333.7,491.1 C328.8,493 321.8,496.7 317.3,498.7 C311.3,501.3 307.6,503 302.9,506.1 C300,507.9 293.1,511 287.3,511 C282.6,511 278.4,501.3 275.6,499.9 C263.6,493.6 253.4,471.6 252.3,468.3 C225.9,460 221.7,452.1 199,437 C198.7,437.4 197.3,438.6 196.3,439.5 C193.3,441.1 187.8,444.2 187.8,444.2 L149.7,394 L125.4,358 L102.6,320.9 L119.4,308.1 C124.7,303 131.5,298.2 136.3,293.7 M136.1,353.7 L137.9,351.5 C133.8,347.1 127.2,342.6 122.3,338.2 C126.5,343.7 131.4,348.6 136.1,353.7 M121.9,328.8 C121.9,328.8 128.8,334.2 137.8,341.9 C141.3,345.1 146.8,352.3 149.3,356.3 C165.7,382.6 178.1,406 196.3,431.2 L198.4,431.2 C207.5,425.8 211.8,415.4 220.9,409.8 C219.8,406.5 219.2,402.9 219.2,399.5 C219.2,388.8 224,383.1 233.7,378.8 C232.6,377.5 230,377.1 229.5,376.3 C227.9,374.3 229.1,369.9 225.9,369.6 C225.2,368.4 224.9,367 224.9,365.6 C224.9,361.4 232,356.4 232,352 C232,351 231.3,346.4 229.7,346.4 C220.8,346.4 217,326.1 217,319.8 C217,317.6 217.5,315.4 218.6,313.5 C217.5,312.8 217.2,306.7 215.8,306.7 C213.6,306.7 213,308.9 211.6,309.4 C207.8,310.6 204.3,311.1 200.6,312.8 C202.3,310.3 213,301.4 215.9,300.1 L214.6,283.7 C208.6,277.7 205.8,264.2 197,261.8 C196.3,281.3 191.6,283 172.9,290.3 C184.7,306.9 193.8,324.8 204.6,342 C212.2,354.2 221.5,365.1 227,378.6 L220.1,375.8 C212.5,354.3 183.8,311.8 169.4,292.9 C169,307.8 121.9,328.8 121.9,328.8 M141.6,358.6 L143.4,362 C144.7,363.6 145.9,365.2 147,366.9 C160.7,387.1 172.2,409.8 188.5,428.2 C171.5,403.3 156.9,371.7 141.6,358.6 M115.6,338.1 C127.1,356.8 171.9,421.9 187.4,437.6 L191.1,437.6 C185.2,433.6 180.7,428.1 176.4,422.5 C164.9,407.5 157.3,393.7 155.5,390.8 C152.7,386.4 117.3,340.3 115.6,338.1 M194.5,441.2 C211.5,457.1 236.6,470.4 259.4,476.6 C258.5,475 257.9,474 257.1,472.5 C255.9,472 247,469.4 246.1,468.7 C246.1,468.7 241.7,461.3 239.2,455.5 C226.2,449.2 214.1,441.4 203.4,432 L196.5,439.5 C196.5,439.4 195.7,440.2 195,440.7 L194.5,441.2 M283.4,486.8 C285.9,498.9 294.1,508.1 296.3,488.1 C297.9,484.1 298.9,480.2 302.1,476.4 C300.3,474.3 296.8,475.5 296.3,473.9 C298.5,468.8 295.5,465 296.6,458.4 C299.4,458.4 307,472.5 307,474.5 C307,476.8 306.5,478.8 305.3,481 C308.6,483.3 303.8,484.6 304,486.9 C308.1,486.9 310.9,476.2 313.6,474.2 C320.4,469.2 333.3,470.5 341.2,466.8 C340.3,466.1 341.6,465.3 341.2,463.8 L337,464.6 C337,466.6 335.3,468.4 331.3,468.4 C329.3,468.4 328.4,466.9 326.6,466.9 C324.8,466.9 322,468.9 317.7,467.3 C318.2,466.3 319.1,465.8 321.3,464.1 C318.3,464.1 314.9,465.1 312.5,465.1 C309.3,465.1 311.4,460.9 307.2,460.9 C299,460.9 300.5,456.2 294.3,454 L293.3,451.4 C293,450.6 295.5,450 295.2,448.9 C294.4,448.9 293.2,450.3 292.4,450.3 C289.9,450.3 290,446.8 290,445.6 C290,436.7 288.6,429.1 288.1,420.1 C288.8,420.1 289.3,419.7 290,419.7 C297.7,419.7 288.7,439.1 300.5,445.7 C300.6,452 309.7,456 314.7,460.6 C319.5,460.3 321.9,457.5 324.6,455.1 C329.6,453.6 337.2,452 342.7,452 C345.5,452 348.1,452.2 350.7,452.6 C345.8,457.5 336.1,454.5 329.2,458.7 C339.8,456.4 353.7,453.9 364.7,453.9 C372.1,453.9 380.5,454.4 388.9,450.8 C385.2,446.5 373.4,443.4 366.7,441.8 C367.9,441.5 369.1,441.3 370.4,441.3 C385.1,441.3 399.8,445.3 414.5,445.6 C415.1,445.6 418.6,443.7 418.6,443.1 C418.6,435.7 430.4,423.3 437.9,416.1 L440.2,417 C442.3,415.8 448,411.8 448,409.8 C448,408.8 443.6,409.4 443.2,408.9 C442.9,407.9 442.5,406.7 442.5,405.7 C442.5,396.6 451.2,389.9 451.2,381.8 C451.2,380.4 450.8,379.2 450.3,377.9 C440.9,373.5 443.9,362.9 436.9,357 L434.4,357.3 C432.8,360.8 432.2,364.7 432.2,368.4 C432.2,380.4 436.6,395.8 421,403.8 C411.1,408.8 411.7,409.5 400.7,409.5 C383.5,409.5 365.8,404.9 351.2,398.7 L351.8,396.5 C352.9,396.9 354.5,396.2 355.7,396.6 C357.5,397.2 356.9,398.1 359.8,398.1 C360.9,398.1 362.2,398.1 363.2,398 C365.6,398.8 379.6,404 381.3,403.4 C382,404 384.9,405.9 386,405.9 C389.3,405.9 397.4,404.7 401.3,404.4 L404.8,406.6 C421.2,406.6 415.6,379.2 424.6,379.2 C425.4,379.2 427.2,380.5 427.8,379.6 C426.8,377.6 426.4,375.5 426.4,373.4 C426.4,369.2 427.7,365 427.7,360.8 C427.7,358.8 427.4,356.9 426.9,354.9 C423.1,353.2 418.6,351 413.9,351 C412.5,351 411.1,351.1 409.8,351.4 C395.4,362 385.6,375.2 364.6,379.8 C366,381 391.3,382.6 395.1,383 C395.4,385.1 398.7,386.1 401.2,386.1 C405.4,386.1 410,392.4 410,395.2 C410,396.5 408.6,397.5 406.6,397.5 C397.7,397.5 404.4,389.4 385.7,389.4 C380.1,389.4 374.7,389.9 369.2,390.5 C368.7,391.6 367,391.3 367.3,392.1 C362.4,391 356.5,387.7 351.4,387.7 C349.5,387.7 347.7,387.8 346.1,388.5 C346.3,390.1 348,391.4 347.9,394.2 C337.8,392.1 328.4,386.1 317.5,386.1 L314.6,386.8 C314.6,389.9 326,393.1 328.5,394.2 L328.5,396.2 C327.4,396.6 326.4,397 323.8,397 C321,395.9 297.9,386.9 296.6,386.9 C295.2,386.9 293.5,387 292,389.1 C292.7,390 294.3,389.5 295.5,389.8 C305.7,391.8 307.6,398.5 312.8,404.1 C317,408.5 323.4,411.1 329.2,414.5 C333.4,425.8 347.8,430.9 358.9,438.3 C358,440.4 359.6,443 354.9,443.3 C349.5,441.7 330.5,435.3 330.5,430.3 C330.5,429.1 332.2,428.5 333.6,428.1 C332.9,427.7 325.6,420.2 325.6,419.6 C325.6,418.3 324.8,417.9 322.8,416.9 C323.8,420.4 321.9,422 321.9,424.9 C321.9,425.8 321.9,426.6 321.6,428.4 C312.6,429.2 316.6,423.2 314.1,421.3 C307.1,416.4 295.4,392.8 287.1,393.1 C287.1,393.3 289.3,394.7 289.6,395.1 C292.1,398 296.7,402 296.7,405.6 C296.7,406.3 296.5,407.1 296.2,407.7 C297.3,410.6 300.1,412.9 303.8,414.4 L302.4,416.4 C288.5,416.4 293.7,398.8 277.7,394.4 C280.8,408.9 274.9,423.4 274.9,438 C275,456.4 278.3,470.5 283.4,486.8 M310.7,488.5 C313,488.4 315.3,488.3 317.5,488.2 C320.5,485.8 322.3,482.6 326,479.6 L322.6,479.9 C319.8,483 313.8,485.3 310.7,488.5 M459.3,371.2 C467.8,351.2 474.3,330 474.3,306.7 C474.3,214.7 398.8,141.3 307.7,141.3 C223.2,141.3 153.6,204.8 143.9,286.7 C147.6,283.2 151.1,280 154.5,276.9 C167.4,204.4 231.6,149.3 308.7,149.3 C395.1,149.3 465.1,218.5 465.1,303.9 C465.1,314.2 464.1,324.2 462.2,333.8 L470.3,347.7 C469.2,365.7 464.3,372.3 459.3,371.2 M109.8,328.8 L112.7,329.1 C115.6,327.1 143.5,306.7 144.3,306 C146.8,304.3 150.3,302.3 150.6,299.9 L109.8,328.8 Z M464.2,348.7 L465.4,348.3 C461.3,337.5 449.9,329.9 447.6,318.6 C442.1,317.2 436.7,312.3 436.7,306.5 C436.7,305 436.6,303.7 438.6,303.7 C446.1,303.7 458.9,328.2 459.9,329.6 C459.4,322.5 456.6,315.8 456.6,308.7 C456.6,305.3 458.7,301.4 461.3,299.1 C457.9,291.3 457.4,298.1 457.4,283.2 C449.4,274 449.3,266.4 437,260 C435.7,259.4 436.2,256.6 435.1,255.8 L413.6,252.1 C414.8,247.8 432.4,247.8 433.7,247.6 L425.4,239.4 C421.1,243.8 418.6,248.1 412.2,249.9 C412,250.8 410.4,252.9 410.6,253.8 C400.2,255.7 389.6,257.4 379.8,261.5 C360.1,269.9 339.1,288 316.3,288 C314.8,288 312.2,287.7 313.4,284.1 C343.3,281.8 403.4,240.6 409,240.6 C411.6,240.6 413.3,242.8 416.5,244.3 L414.5,242.1 C412.9,234.2 423.6,235.8 423.5,228.9 L411.7,219.7 L407.3,207.8 C406,207.4 404.6,206.9 403.1,206.9 C401.5,206.9 399.6,207.5 397.1,209 C397.5,210.7 400.8,211.4 400.8,213.3 C400.8,222.6 389.2,246.9 379.9,252 L354.5,266.1 C345.9,270.8 323,281.1 313.6,281.1 C312.8,281.1 309.2,281.3 309.2,279.7 C309.2,278.6 310.1,278.2 310.8,277.4 C332.2,273.7 350.9,263.4 369,251.1 C369,246.9 365.8,239.7 361,239.7 C356.4,239.7 352.9,240.3 352.9,233.9 C352.9,232.4 353,231.2 354.9,231.2 C356.4,231.2 361.1,233.9 361.1,228.8 C361.1,225.3 363.5,223.1 362.3,220.6 L359.7,220.6 C357.2,220.3 354.6,219.6 351.7,220.8 L351.1,224.7 C350.6,227.3 348.7,226.7 348.7,229.9 C348.7,232.1 350,234.3 349.9,237.6 L346.3,239.2 C344.2,244.2 343.4,250.9 336.8,251.9 L335.5,249.7 C335.5,247.4 340,247.1 339.3,243.8 C338,243.8 334.1,245.1 333.2,244.4 C330.5,242.1 331.3,232.3 329,231.3 C320.6,231.5 323.5,226.3 318.2,227.8 C315.1,227.2 316.5,221.7 311.9,221.7 C300.7,221.7 300.3,213.5 289.9,213.5 C287.4,213.5 284.7,213.6 282.3,214.5 C281.9,215.6 281.9,216.8 281.9,217.9 C281.9,222 284.1,226.3 284.1,229.2 C284.1,230.5 282.8,231.8 285.1,231.8 C288.8,231.8 298.8,230.6 298.8,237 C298.8,239.1 295.4,240.4 294.5,241.7 C293.8,242.7 294,247.3 292.4,247.3 C290.2,247.3 288.7,240.3 285.1,238.2 L285.7,256.1 C288,256.1 288.1,252.8 293.9,251.8 C293.9,251.3 293.5,247.8 294.2,247.8 C294.4,247.8 298.1,254.5 296.7,256.7 C294.7,256.7 292.1,253.8 292.1,258.3 C292.1,259.8 293.6,260.3 294.9,260.3 C295.9,260.3 302.2,258.6 302.2,260.7 C302.2,264.9 297.3,261.7 297.3,264.4 C297.3,268.5 301.2,265.3 301.2,269.7 C301.2,273.3 300.1,277.7 307.8,277.4 C307.8,281.4 304.3,281.3 300.9,282.8 L300.9,285 L303.8,285.6 C302.7,287.9 303.6,291.1 306.7,291.1 C336.6,291.1 366.8,279.5 391.7,263.5 C395.7,264.4 399.2,262.6 403,262.6 C405.6,262.6 408.1,263 409.9,265 L410.8,268 L408.6,269.7 C410.8,271.4 413.6,272.3 416.3,272.3 C423.5,272.3 430,267.1 437.3,267.1 C449,267.1 450.9,285.5 453.3,293.4 C454,295.7 458.2,299.2 458.2,300.2 C458.2,301.3 453.7,303.2 452.6,303.2 C446.8,303.2 446.7,290.9 444.8,289.9 L441.2,289.9 C437.5,287 427,286.1 426.6,280.7 C415.7,277.1 405.2,275.9 393.8,275.9 C366.1,275.9 366.7,289.5 356.2,289.5 C354.4,289.5 348.1,288.8 347,290.2 C346,291.7 347.3,294.2 345.8,295.3 C340.7,294.1 334.5,293.8 330.2,297.6 L307.4,297.6 C308.6,308.7 313.9,304.8 320.1,310.3 C318.9,311.9 313.3,315.2 311.5,315.2 C301.9,315.2 304.3,297.5 293.1,297.6 L302.8,320.2 L300.4,320.3 C297.6,320.3 292.6,312.9 290.5,310.6 L288.5,310.6 L295,327 L311,338 C311,344.3 322,343.7 327.1,343.7 C341.1,343.7 354.4,336.9 368.5,336.9 C372.3,336.9 375.7,338.7 379.4,338.7 C388.7,338.7 396.8,332.1 405.9,332.1 C409.2,332.1 411.6,330.6 414.8,330.6 C423.9,330.6 430.9,339.6 440.5,339.6 C441.5,339.6 442.6,339.2 443.6,339 C446.7,340.9 446.7,345.8 448.6,345.8 C456.9,345.9 455,342.7 464.2,348.7 M330.3,218.9 L332,218.9 C332,216.3 333.8,215.9 333.8,213.9 C333.8,212.1 332.4,210.3 334.8,207.8 C338.9,211.3 336.3,211.8 338,215.1 L340.1,214.1 C338.6,214.1 340.6,210.6 340.7,210.4 C344.8,211.1 348.2,216.7 352.7,216.7 C357.2,216.7 358.8,215.8 363.5,218 C363.7,216.7 363.8,215.4 363.8,214.1 C363.8,209.8 362,205.6 360.7,201.5 C359.5,197.7 359.1,193.9 357.2,190.2 C351.7,180.1 336,175.3 325.2,175.3 C311.1,175.3 294.1,182.3 286.7,194.4 C291.1,194.4 298.8,192.1 304,191.6 C306.8,192.8 308,196.9 311.8,196.7 C311.7,196.1 312.8,194.3 313.2,193.6 L315.8,194 C315.3,200.9 315.6,207.6 314.4,214.5 C315.5,214.8 317.5,212.7 318.8,212.7 C321.8,212.7 321.4,216.2 322.9,217.5 C323.7,218.3 325.1,217.7 326.2,217.9 C327.7,218.2 328,219.9 330.3,218.9 M263.1,391.4 L265.1,390.1 C263.3,388.1 259.3,383.7 259.3,380.9 C259.3,372.9 258.9,364.7 258.3,356.5 C258.3,355.3 260.3,354.3 260.8,353.3 C261,352.9 261.9,343.3 261.9,342.3 C261.9,336.6 261.6,333.4 257.3,328.8 C256.5,331 257.2,339.1 254,339.1 C252.9,339.1 246,333.1 246,332.7 C246,322.8 249.7,312.6 249.7,302.7 C249.7,298.8 245,296.2 242.2,294.5 C241.5,295.3 241.2,297.8 241.2,298.8 C241.2,305.7 245.4,302.7 245.4,304.8 C245.4,306.1 242.3,305.7 241.5,305.9 C240.4,306.1 240.6,308.6 238.5,308.6 C238.2,308.6 236.2,307.7 236.2,308.4 C236.2,309.5 237.8,310.5 237.7,313 C235,313 228,303.8 224.9,303 L218.9,301.4 C217.5,301 216.8,303.1 217.1,304.9 C221.7,308.3 224.8,310.9 227.4,316.1 C228.2,317.6 228.3,325.1 230.1,328.9 C233.7,336.5 235.6,333.5 238.7,337.6 C241,340.5 240.2,344.6 241.3,347.9 L248.1,353.5 L253,342.5 L255.8,343 L256.5,346.6 C252.9,354.7 248.6,363.5 248.6,372.6 C248.8,384.4 253.7,387.2 263.1,391.4 M456.8,393.1 C458.3,390.9 459.6,387.4 459.6,387.4 C459.7,386.4 459.7,383.5 459.7,382.4 L459.7,377.8 C459.7,374.4 458.8,371.2 457.5,368.1 L456.8,393.1 Z M297.3,382.8 L300.4,364 L298.2,365 L293.6,381.6 C293.8,381.8 296.7,382.7 297.3,382.8 M349.1,376.3 C352.5,375.6 356.1,374.7 358.9,373 C364.2,369.8 367.3,358.1 373.4,358.1 L375.7,359.1 L372.6,367.2 C381.3,365.5 387.4,353 393,346.8 C389.2,346.6 384.7,346.5 380.9,346.8 C378.7,348.5 376.4,349.9 373.1,353.6 C368.2,357.8 361.9,360.7 358.9,366.9 C355.5,367.8 349,371.2 349.1,376.3 M286.9,375 L287.9,374.8 L290.5,364.6 L288.5,362.6 C287.1,364 286.2,366.6 286.2,368.6 L286.2,370.9 C286.2,372.3 286.5,373.8 286.9,375 M276.9,367.2 C279.1,367.2 279.1,363.5 279.3,362.7 C277.9,361.2 277,359.1 277,357.1 C277,353 279.5,349.1 279.5,345.5 C279.5,343.9 279.4,342.3 276.9,341.5 L276.9,367.2 L276.9,367.2 Z M318.6,366.2 L319.9,366.2 C321.4,363.9 322.2,361.8 322.4,359.1 C322.5,357.9 322.3,356.7 322.6,355.5 C321.8,356.1 321.1,357 320.6,357.8 C319.7,359.3 318.6,362.9 318.6,366.2 M307.7,366 L309,366 L315.5,349.8 L308.3,356.9 C307.6,357.5 306.8,359.6 306.8,360.5 L306.8,362.9 C306.8,363.8 307.1,365.3 307.7,366 M231.3,364.6 C232.1,363.5 233.4,362.9 233.3,361.1 L231.3,362.6 L231.3,364.6 Z M332.7,360.1 C333.2,360 333.7,359.2 336.2,357.7 C336.5,357 336.6,355.7 336.6,355 C336.6,353.7 336.4,352.4 336.2,351.1 L332.7,360.1 Z M290.8,359.1 C293.7,356.7 295.2,356.1 295.9,352 C295.7,352 294.3,351.1 293,350.5 L297.6,336.8 L294.6,338.3 L290.8,359.1 Z M457.7,359.5 C458.7,356.7 455.5,353.6 454.4,352.3 C454.3,352.4 454,353.2 454,355 C454,355.3 454.3,356.5 455.3,358.2 C456.2,358.6 456.8,359.1 457.7,359.5 M364.9,352.4 C368,350.1 373.5,347.2 371.6,343.4 C371.4,343.7 369.7,344.5 369.5,344.7 C368.8,345.6 368.2,346.8 367.5,347.8 C366.8,348.8 365.8,349.7 364.9,352.4 M267.7,348.7 L269.1,348.3 C269.4,347.3 269.9,346.2 270.1,345.1 C270.6,342.2 270.1,338.5 271.9,336.1 C269.8,333 270,334.6 269.1,333.9 C268.6,335 268.1,336.3 268.1,337.6 C268.1,339.3 268.5,341.1 268.5,342.8 L268.5,345.4 C268.5,346.3 268.1,347.7 267.7,348.7 M283.2,331.5 L285.9,329.3 C285.7,328.7 285.9,328 284.6,327 C283.9,327.3 283.3,327 282.6,327.1 C282,327.2 280.9,327.7 281.2,329.3 L283.2,331.5 Z M172.8,283.7 C177.2,283.5 189.7,275.9 191.7,270 C185.5,274.6 178.8,278.6 172.8,283.7 M229.1,288.4 C228.3,288.4 226.3,288.6 223.8,290.7 C221.4,292.5 220.1,292.6 218.5,295.3 C218.2,295.8 217.7,296.6 218.5,297.9 C219.8,297.9 220.3,296.4 222.4,294.5 C224.9,294.5 226.1,291.3 227.4,290.6 C228.6,289.8 229.5,290.2 230.7,289.7 C231.2,290 233.9,289.6 234.2,289.1 C233.5,288.7 230,288.4 229.1,288.4 M238.9,287.7 C243.5,286 247.1,284.6 252.1,284.6 C254.8,284.6 258.1,285.6 260.6,284.7 C268.3,282 279.7,277 295.9,276.2 C294.4,275.1 281.2,274 279.3,274 C264.5,274.1 250.7,278.9 238.9,287.7 M179.6,272.1 L190.6,264.7 C191.6,264.2 192,264.3 191.9,262.2 C191.5,262.3 191,262.5 189.7,263.5 L179.6,272.1 Z M372.1,244 L373.9,242.9 C373.9,242 373.1,241.1 373,238.5 C372.8,238.6 371.7,239.8 371,240.9 C371,241.2 371.4,242.8 372.1,244 M337,219.7 C336.4,220.2 335.4,222 335.4,222.7 C335.4,223.4 338.5,224.5 338.5,227.8 C338.5,231.1 337,234.1 337.3,238.4 C339.5,238.8 340.8,230.5 340.8,229.4 L340.8,227.1 C340.7,225.2 339.7,220.6 337,219.7 M378.1,237.2 L387.7,232 L385.3,232.3 C382.6,233 381.4,234.5 378.1,237.2 M372.6,231.9 L383.5,222.7 C379.6,223.1 378.3,224 375.6,226.6 C374.7,227.5 373.5,228.3 372.6,229.3 L372.6,231.9 Z M388.4,226.5 L391.2,226 L392.6,223.4 C392.6,223 391.6,220.6 391.2,220.2 L388,220.6 C388.2,220.8 389.5,220.8 391.2,222.6 C390.8,223.3 390.4,224 389.8,224.7 C389.6,225 389,225.5 388.4,226.5 M306.7,214.7 L307.7,213.7 C309.2,211.5 309.6,208.5 309.5,206.2 L306.4,207 C305.6,207.8 305.2,209 305.2,210.1 C305.2,211 306.1,214.1 306.7,214.7 M297.3,203.1 L298.2,202.7 C299,202.3 300,201.6 300.3,200.8 L300.4,198.6 L298.2,200.1 L297.3,203.1 Z M276.9,392.4 L279.1,392 C278.4,388.1 277.1,384.8 274.7,381.5 C273.7,380.1 272.4,379 271.4,377.7 C270.7,380.8 272.1,383.4 270,386.2 L276.9,392.4 Z M245.7,460.5 L244.6,438 C243.5,437.9 242.4,436.5 242.4,434.7 C243.3,433.5 245,432.7 246.6,432.7 C249.7,432.7 252.5,434.1 256.7,433.9 L256.3,431.1 C253,431.2 249.7,430.5 246.5,430.5 L243.4,430.5 C241.4,430.5 238.4,430.8 238.4,433.3 C238.4,443.4 242.9,450.6 245.7,460.5 M438.4,443.9 C445.7,438 452.5,433.7 455.3,424.7 L440.1,440.4 C439.7,440.8 439.9,442 438.4,443.9 M262,432.8 L263.6,432.6 L266.2,432.7 C266.5,432.7 267.1,432.3 266.1,430.6 L264.1,430.5 L262,430.9 L262,432.8 Z M236.1,417.9 C236.1,420.6 252.1,424 255.8,424 C259.6,424 263,422.7 266.8,422.7 C267.5,422.7 268.2,422.7 268.9,423 C269.9,421.2 271.5,417.1 271.5,415.2 L271.5,411.8 C271.5,407.1 267.5,402.6 265.2,398.6 L261,396.3 C256.3,396.3 251.7,398.1 247,398.1 C239.9,398.1 232.8,394.4 226.5,394.4 C225.8,394.4 225.3,394.5 224.4,395.9 C224.4,400.5 245.4,404.6 245.4,406.4 C245.4,407.5 243.2,408.9 242.3,408.9 C239.8,408.9 232,406.1 229.5,406.4 C229.5,407.2 231.3,409.2 232,409.6 C236.2,412.3 239.2,413.1 244,414.4 C244.9,414.6 248.6,417.7 247,419.4 C243.7,419.3 240.1,418.6 236.1,417.9 M241.7,391.4 L243.5,392.8 L248.4,393.8 C249,393.9 249.9,392.8 249.2,391 L246,389 L243.3,388.8 C242.3,388.9 242.3,389.3 241.7,391.4 M424.2,390.5 C426.9,389.9 427.8,387.5 427.8,384.9 C427.8,384 427.4,383 427.4,382.1 L424.2,390.5 Z M269.6,477.1 C270.6,476.2 271,475.1 271.1,474.6 C271.2,473.9 270.9,473.2 271.2,472.5 C270.4,472.2 269.9,471.6 268.2,472.4 C268.4,473.8 268.4,476.1 269.6,477.1" id="Shape" fill-rule="nonzero"></path>
                <path d="M114.3,454.3 L114.6,455.2 L103.7,457.8 L87.9,431.6 L88.8,431.1 L89.6,432.4 C90.5,433.8 91.5,434.5 92.8,434.6 C93.5,434.6 94.9,434 96.8,432.9 L118.6,419.8 C120.7,418.5 121.9,417.5 122.1,416.7 C122.5,415.6 122.3,414.4 121.5,413.1 L120.8,411.8 L121.7,411.3 L130.9,426.6 L130,427.2 C129,425.4 128,424.2 127.2,423.7 C126.4,423.3 125.7,423 125,423 C124.3,423.1 123,423.7 120.9,424.8 L99.6,437.6 C98.2,438.4 97.3,439.1 97,439.7 C96.8,440.1 96.7,440.6 96.8,441.1 C96.8,441.6 97.5,442.9 98.9,445.1 L100.4,447.6 C102,450.2 103.2,451.9 104.2,452.7 C105.2,453.5 106.5,454.1 108,454.4 C109.6,454.8 111.7,454.7 114.3,454.3" id="Path" fill-rule="nonzero"></path>
                <path d="M155.4,460.2 L156.2,459.4 L165.6,469.9 L164.8,470.6 L163.8,469.5 C162.8,468.4 161.5,467.9 159.9,468.2 C159.2,468.3 158.1,469.1 156.4,470.6 L144.5,481.3 C141.6,484 138.9,485.8 136.8,486.6 C134.7,487.5 132.2,487.6 129.5,486.9 C126.9,486.2 124.1,484.4 121.5,481.5 C118.6,478.3 117,475.4 116.6,472.7 C116.2,470 116.7,467.5 117.9,465.1 C118.8,463.5 121,461 124.5,457.9 L136,447.6 C137.7,446 138.7,444.7 138.8,443.6 C139,442.6 138.5,441.5 137.5,440.4 L136.5,439.3 L137.3,438.6 L148.8,451.3 L148,452 L147,450.8 C145.9,449.6 144.8,449.1 143.5,449.3 C142.7,449.4 141.5,450.2 139.8,451.7 L127,463.2 C125.9,464.2 124.6,465.5 123.4,467 C122.1,468.5 121.3,470 121,471.3 C120.6,472.6 120.7,473.9 121,475.5 C121.4,477 122.3,478.5 123.6,480 C125.3,482 127.3,483.3 129.5,484.1 C131.7,484.9 133.7,484.9 135.5,484.3 C137.3,483.6 139.8,481.9 142.9,479.1 L154.8,468.4 C156.6,466.8 157.6,465.6 157.6,464.7 C157.8,463.6 157.3,462.5 156.3,461.3 L155.4,460.2 Z" id="Path" fill-rule="nonzero"></path>
                <path d="M171.6,497 L170.8,512.2 C170.6,516.4 170.6,519.2 170.9,520.7 C171.3,522.1 172.1,523.4 173.5,524.5 L172.9,525.4 L159.4,515.2 L160,514.3 C160.9,515 161.6,515.4 162.2,515.6 C162.6,515.7 163,515.7 163.5,515.6 C163.9,515.4 164.3,515.2 164.5,515 C164.8,514.6 165,514.3 165.1,513.8 C165.2,513.4 165.3,512.4 165.3,510.8 L166,498.6 L153,502.1 C151.7,502.5 150.8,502.8 150.5,503 C150.1,503.1 149.8,503.4 149.6,503.7 C149.2,504.2 149.1,504.8 149.3,505.4 C149.4,506.1 150.1,506.8 151.2,507.8 L150.6,508.6 L139.4,500.2 L140.1,499.3 C140.9,499.8 141.8,500.2 142.5,500.4 C143.8,500.7 145,500.9 146.5,500.8 C147.8,500.8 149.6,500.4 151.8,499.9 L166.3,496.1 L166.9,482.3 C167.1,478.6 166.9,475.8 166.2,474.2 C165.6,472.5 164.6,471.1 163.1,469.9 L163.7,469 L178.3,480 L177.7,480.9 C176.4,480 175.4,479.6 174.7,479.6 C174,479.6 173.4,479.8 173.2,480.3 C172.7,480.9 172.5,482 172.5,483.7 L171.8,494.6 L182.7,491.7 C184,491.3 184.8,491.1 185.2,490.8 C185.6,490.6 185.9,490.4 186.1,490.1 C186.3,489.8 186.5,489.4 186.5,489 C186.5,488.5 186.3,488.1 186.1,487.7 C185.9,487.3 185.2,486.7 184.1,485.8 L184.8,484.9 L196,493.3 L195.4,494.2 C194.5,493.6 193.6,493.2 192.9,493 C191.7,492.7 190.6,492.6 189.5,492.7 C188.4,492.7 186.5,493.1 184,493.8 L171.6,497 Z" id="Path" fill-rule="nonzero"></path>
                <path d="M225.9,511 L220.3,525.6 L228.5,528.7 C230.6,529.5 232.1,529.7 233,529.3 C234.3,528.8 235.4,527.6 236.3,525.5 L237.3,525.9 L232.4,538.8 L231.4,538.3 C231.8,536.5 232,535.2 232,534.6 C231.9,533.9 231.5,533.2 230.9,532.5 C230.3,531.8 229.2,531.3 227.7,530.7 L219.6,527.6 L214.9,539.8 C214.3,541.4 214,542.4 214,542.8 C214,543.2 214.1,543.6 214.4,544 C214.7,544.4 215.3,544.7 216.4,545.1 L222.7,547.5 C224.8,548.3 226.3,548.8 227.4,548.8 C228.4,548.9 229.6,548.6 230.7,548.1 C232.3,547.4 234.1,546.1 236.1,544.3 L237.2,544.7 L230.5,552.8 L202.1,541.9 L202.5,540.9 L203.8,541.4 C204.7,541.8 205.6,541.9 206.5,541.8 C207.2,541.7 207.8,541.4 208.2,540.9 C208.6,540.4 209.2,539.3 209.9,537.5 L219.1,513.5 C220,511.1 220.3,509.6 220.1,508.9 C219.7,508 218.8,507.1 217.3,506.6 L216,506.1 L216.4,505.1 L244.8,516 L242.1,524.3 L241,523.8 C241.3,521.7 241.4,520.2 241.3,519.4 C241.1,518.5 240.6,517.6 239.8,516.9 C239.1,516.4 237.9,515.8 236.1,515 L225.9,511 Z" id="Path" fill-rule="nonzero"></path>
                <path d="M279.8,523.8 L278.5,532.9 L277.4,532.7 C277.5,531 277.4,529.8 277.2,529.1 C276.8,527.9 276.2,526.9 275.3,526.2 C274.5,525.5 273.2,524.9 271.6,524.7 L266.2,523.6 L260.5,553.3 C260,555.7 260,557.2 260.4,557.9 C261,558.9 262,559.5 263.5,559.8 L264.9,560.1 L264.7,561.2 L248.2,558 L248.4,557 L249.8,557.2 C251.5,557.5 252.7,557.3 253.6,556.4 C254.1,555.9 254.6,554.5 255,552.4 L260.8,522.7 L256.1,521.8 C254.3,521.5 253,521.4 252.2,521.5 C251.1,521.7 250.1,522.2 249.2,523.1 C248.3,524 247.6,525.3 247.2,527 L246.1,526.8 L248.3,517.8 L279.8,523.8 Z" id="Path" fill-rule="nonzero"></path>
                <path d="M341.7,522.4 L341.8,523.5 C340.5,523.8 339.4,524.4 338.8,525.1 C337.8,526.1 337.1,527.6 336.5,529.7 L325.7,564.4 L324.7,564.5 L307,531.9 C306.1,530.3 305.5,529.2 305.1,528.9 C304.5,528.3 303.9,527.9 303.1,527.6 C302.4,527.3 301.4,527.2 300.2,527.2 L300,526 L316.1,524.6 L316.2,525.6 C314.4,526 313.3,526.4 312.8,526.9 C312.3,527.4 312.1,527.9 312.1,528.7 C312.2,529.7 312.8,531.1 313.9,533.1 L325.9,555.3 L333.3,531.7 C334,529.4 334.3,527.8 334.2,526.9 C334.2,526.3 333.8,525.8 333.2,525.4 C332.6,524.9 331.6,524.7 330.2,524.5 C330.2,524.5 329.9,524.5 329.7,524.5 L329.7,523.4 L341.7,522.4 Z" id="Path" fill-rule="nonzero"></path>
                <path d="M353.3,521.5 L357.3,536.5 L365.7,534.3 C367.9,533.7 369.3,533 369.8,532.2 C370.6,531.1 370.7,529.4 370.2,527.2 L371.3,526.9 L374.9,540.2 L373.8,540.5 C373.1,538.7 372.5,537.6 372.1,537.2 C371.6,536.6 370.9,536.3 370,536.1 C369.1,535.9 367.9,536 366.3,536.5 L357.9,538.8 L361.3,551.4 C361.7,553.1 362.1,554.1 362.3,554.4 C362.5,554.7 362.9,555 363.3,555.1 C363.8,555.2 364.5,555.1 365.5,554.8 L372,553 C374.2,552.4 375.7,551.9 376.5,551.3 C377.4,550.7 378.2,549.9 378.9,548.7 C379.7,547.3 380.4,545.2 381.1,542.5 L382.3,542.2 L381.6,552.6 L352.2,560.5 L351.9,559.5 L353.3,559.2 C354.2,558.9 355,558.5 355.7,557.8 C356.2,557.3 356.5,556.8 356.6,556.1 C356.7,555.5 356.4,554.1 355.9,552.3 L349.3,527.5 C348.7,525.1 348.1,523.7 347.4,523.2 C346.5,522.7 345.2,522.6 343.7,523 L342.3,523.4 L342,522.3 L371.4,514.4 L374.1,522.7 L373,523 C372,521.1 371.3,519.9 370.6,519.3 C369.9,518.7 369.1,518.2 368,518.1 C367.2,518 365.8,518.2 364,518.7 L353.3,521.5 Z" id="Path" fill-rule="nonzero"></path>
                <path d="M392.8,526.1 C393.1,526 393.4,525.9 393.7,525.7 C394,525.6 394.2,525.5 394.4,525.4 C397.8,523.8 400,521.8 401,519.6 C402,517.3 402,515 401,512.7 C399.9,510.4 398.4,509 396.4,508.2 C394.3,507.4 392.2,507.6 389.8,508.7 C388.8,509.2 387.5,510 385.9,511.1 L392.8,526.1 Z M426.9,532.7 L417.3,537.1 L397.4,526 C396.5,526.4 395.8,526.8 395.2,527.1 C394.9,527.2 394.7,527.3 394.5,527.4 C394.2,527.5 393.9,527.6 393.6,527.8 L398.5,538.2 C399.6,540.5 400.4,541.7 401.2,542 C402.2,542.4 403.4,542.4 404.7,541.8 L406.1,541.2 L406.6,542.2 L391.3,549.4 L390.8,548.4 L392.2,547.8 C393.7,547.1 394.6,546.1 394.7,544.8 C394.8,544 394.4,542.7 393.4,540.7 L382.6,517.5 C381.5,515.3 380.7,514 379.9,513.7 C378.9,513.3 377.7,513.4 376.3,514 L375,514.6 L374.6,513.6 L387.6,507.5 C391.4,505.7 394.3,504.7 396.4,504.5 C398.5,504.2 400.4,504.5 402.4,505.4 C404.4,506.3 405.9,507.8 406.8,509.8 C407.8,512 408,514.3 407.3,516.5 C406.6,518.8 404.9,521 402.3,523.1 L414.5,529.9 C417.2,531.5 419.4,532.4 421,532.6 C422.6,532.8 424.4,532.6 426.4,531.9 L426.9,532.7 Z" id="Shape" fill-rule="nonzero"></path>
                <path d="M444.3,519.7 L444.9,520.6 L430.7,529.8 L430.1,528.9 L431.3,528.2 C432.7,527.3 433.4,526.3 433.5,525.1 C433.5,524.3 432.9,522.9 431.7,520.9 L417.8,499.5 C416.7,497.8 415.8,496.8 415.3,496.3 C414.9,496 414.3,495.9 413.6,496 C412.6,496 411.8,496.3 410.9,496.8 L409.7,497.6 L409.1,496.7 L423.3,487.5 L423.9,488.4 L422.7,489.2 C421.4,490.1 420.6,491.1 420.5,492.3 C420.4,493.1 421,494.5 422.3,496.5 L436.2,517.9 C437.3,519.5 438.1,520.6 438.7,521 C439.1,521.3 439.7,521.4 440.4,521.4 C441.4,521.3 442.2,521 443,520.5 L444.3,519.7 Z" id="Path" fill-rule="nonzero"></path>
                <path d="M451.6,464.2 L457.9,471 L457,471.7 C455.8,470.6 454.8,469.9 454.1,469.6 C452.9,469.1 451.7,469 450.6,469.2 C449.5,469.4 448.3,470.1 447.1,471.1 L442.8,474.7 L462.2,497.8 C463.8,499.7 465,500.7 465.8,500.8 C466.9,501 468,500.5 469.2,499.6 L470.2,498.7 L470.9,499.5 L458,510.3 L457.3,509.5 L458.4,508.6 C459.7,507.5 460.3,506.4 460.1,505.2 C460,504.5 459.4,503.2 457.9,501.5 L438.5,478.4 L434.9,481.5 C433.4,482.7 432.6,483.7 432.2,484.3 C431.6,485.3 431.5,486.3 431.6,487.6 C431.7,488.9 432.3,490.2 433.3,491.7 L432.5,492.4 L426.9,485 L451.6,464.2 Z" id="Path" fill-rule="nonzero"></path>
                <path d="M482.4,464.7 L465.9,459.5 L473.7,475.1 L482.4,464.7 Z M484.5,465.4 L474.7,477.1 L477.8,483.1 C478.6,484.6 479.2,485.6 479.8,486.1 C480.2,486.5 480.9,486.6 481.6,486.5 C482.3,486.3 483.3,485.6 484.6,484.2 L485.5,484.9 L477.5,494.4 L476.7,493.7 C477.5,492.3 478,491.2 477.9,490.5 C477.8,489.2 477.1,487.1 475.6,484.3 L459.6,452.8 L460.3,452 L494.3,462.6 C497.1,463.5 499.1,463.8 500.2,463.7 C501.4,463.5 502.5,462.8 503.7,461.6 L504.6,462.3 L494.6,474.2 L493.8,473.5 C494.7,472.2 495.2,471.3 495.2,470.5 C495.2,469.8 495,469.3 494.5,468.8 C493.9,468.2 492.6,467.6 490.7,467.1 L484.5,465.4 Z" id="Shape" fill-rule="nonzero"></path>
                <path d="M484.9,417.5 L496.4,424.7 L495.8,425.6 C493.4,424.5 491.3,423.9 489.5,423.8 C487.7,423.8 486,424.2 484.3,425.1 C482.7,426.1 481.4,427.3 480.4,428.8 C479.3,430.5 479,432.3 479.3,434.1 C479.6,435.8 480.5,437.2 481.8,437.9 C482.8,438.6 484,438.8 485.2,438.6 C487.1,438.3 490.2,436.9 494.6,434.4 C498.2,432.3 500.8,431 502.5,430.4 C504.1,429.8 505.7,429.6 507.3,429.8 C508.8,429.9 510.3,430.4 511.6,431.2 C514.2,432.8 515.7,435.1 516.3,438.3 C516.9,441.4 516.3,444.5 514.3,447.6 C513.7,448.6 513,449.4 512.4,450.2 C512,450.7 511.1,451.5 509.5,452.9 C508,454.1 507.1,455 506.8,455.5 C506.6,455.9 506.4,456.3 506.6,456.7 C506.7,457.1 507.1,457.6 507.8,458.2 L507.3,459.1 L495.9,451.9 L496.4,451 C499,452 501.2,452.6 502.9,452.6 C504.5,452.6 506.1,452.1 507.9,451.1 C509.6,450.1 511,448.8 512.1,447 C513.4,445 513.9,443 513.5,441.1 C513.2,439.2 512.3,437.8 510.8,436.9 C510,436.3 509,436.1 507.9,436 C506.8,435.9 505.5,436.1 504.3,436.6 C503.4,437 501.3,438.1 497.9,439.9 C494.5,441.8 491.9,443 490.2,443.6 C488.5,444.2 486.9,444.5 485.3,444.4 C483.8,444.3 482.4,443.8 481,443 C478.6,441.5 477.1,439.3 476.5,436.3 C475.9,433.4 476.5,430.5 478.3,427.6 C479.4,425.8 481,424.2 483.1,422.8 C484.1,422.1 484.7,421.6 485,421.3 C485.3,420.8 485.3,420.4 485.3,420 C485.2,419.6 484.8,419 484.1,418.3 L484.9,417.5 Z" id="Path" fill-rule="nonzero"></path>
                <path d="M59.7,272.7 L80.8,274.5 L80.7,276.2 C76.6,276.4 73.3,277.1 70.8,278.3 C68.3,279.5 66.2,281.3 64.5,283.7 C62.9,286.2 62,288.8 61.7,291.5 C61.4,294.6 62.2,297.3 63.9,299.5 C65.6,301.7 67.6,302.9 70.1,303.1 C71.9,303.3 73.7,302.8 75.3,301.6 C77.7,299.9 81.1,295.8 85.5,289.1 C89.1,283.7 91.8,280 93.6,278.1 C95.4,276.1 97.5,274.7 99.8,273.8 C102.1,272.8 104.4,272.4 106.9,272.7 C111.5,273.1 115.3,275.3 118.3,279.1 C121.3,282.9 122.5,287.7 122.1,293.3 C122,295.1 121.7,296.7 121.3,298.2 C121.1,299.1 120.4,301 119.2,303.8 C118,306.6 117.4,308.4 117.3,309.2 C117.2,309.9 117.4,310.5 117.8,311 C118.2,311.5 119.1,311.9 120.5,312.2 L120.3,313.9 L99.5,312.1 L99.6,310.4 C104,310 107.4,309.2 109.7,308.1 C112,307 114,305.1 115.7,302.6 C117.4,300 118.3,297.1 118.6,293.9 C118.9,290.1 118.2,287.1 116.4,284.8 C114.6,282.4 112.4,281.1 109.6,280.9 C108.1,280.8 106.6,281 105,281.8 C103.4,282.5 101.8,283.6 100.4,285.3 C99.4,286.3 97.2,289.4 93.9,294.3 C90.5,299.3 87.8,302.8 85.9,304.8 C84,306.9 82,308.3 79.8,309.3 C77.5,310.3 75.2,310.6 72.7,310.4 C68.3,310 64.7,308 61.8,304.4 C59,300.8 57.8,296.4 58.2,291.3 C58.5,288 59.6,284.7 61.4,281.2 C62.3,279.6 62.8,278.4 62.9,277.8 C63,277 62.8,276.3 62.4,275.8 C62,275.3 61.1,274.8 59.7,274.3 L59.7,272.7 Z" id="Path" fill-rule="nonzero"></path>
                <path d="M113.6,225.1 L86.8,225.5 L105.7,244.6 L113.6,225.1 Z M117.2,225.2 L108.4,247.1 L115.8,254.5 C117.6,256.3 119.1,257.4 120.1,257.9 C121,258.3 121.9,258.2 122.9,257.6 C123.9,257.1 125,255.4 126.3,252.8 L127.9,253.4 L120.7,271.2 L119.1,270.6 C119.6,268.1 119.7,266.3 119.3,265.4 C118.5,263.4 116.4,260.8 113.1,257.4 L74.5,218.6 L75.1,217.1 L130.1,216.5 C134.6,216.4 137.6,216 139.2,215.2 C140.8,214.3 142.2,212.8 143.3,210.5 L144.9,211.1 L135.9,233.4 L134.4,232.8 C135.2,230.5 135.4,228.9 135.1,227.8 C134.8,226.7 134.2,226 133.2,225.6 C132,225.1 129.8,224.9 126.7,224.9 L117.2,225.2 Z" id="Shape" fill-rule="nonzero"></path>
                <path d="M97.8,171.9 L108.9,159.6 L167.9,162.5 L141.7,138.9 C138.9,136.4 136.9,135.2 135.7,135.2 C134,135.2 132.4,136.1 130.8,137.8 L129.3,139.4 L128.1,138.3 L142.4,122.5 L143.6,123.6 L142.1,125.2 C140.4,127.1 139.8,129 140.2,130.8 C140.5,132 141.9,133.6 144.5,135.9 L182.7,170.4 L181.6,171.6 L118.1,168.6 L146.1,193.8 C148.9,196.3 150.9,197.6 152.1,197.6 C153.8,197.6 155.5,196.7 157,195 L158.5,193.4 L159.7,194.5 L145.5,210.3 L144.3,209.2 L145.7,207.6 C147.4,205.7 148,203.8 147.7,202 C147.4,200.8 146,199.1 143.4,196.8 L111.8,168.4 C109.1,168.3 107.1,168.4 106.1,168.7 C105,168.9 103.6,169.5 102,170.4 C101.2,170.9 100.3,171.8 99.1,173.1 L97.8,171.9 Z" id="Path" fill-rule="nonzero"></path>
                <path d="M200.3,84.4 L208.2,96.3 L206.8,97.2 C205.2,95.2 203.9,93.9 202.8,93.2 C201.1,92.2 199.4,91.7 197.6,91.8 C195.9,91.9 194,92.6 191.8,93.9 L184.4,98.3 L208.4,138.3 C210.3,141.5 211.9,143.3 213.1,143.7 C214.7,144.2 216.5,143.8 218.6,142.6 L220.4,141.5 L221.2,142.9 L199,156.2 L198.2,154.8 L200.1,153.7 C202.3,152.4 203.5,150.8 203.6,148.9 C203.6,147.7 202.8,145.7 201.1,142.8 L177.1,102.8 L170.8,106.6 C168.4,108 166.8,109.2 165.9,110.2 C164.8,111.5 164.3,113.1 164.1,115.1 C164,117 164.5,119.3 165.8,121.7 L164.3,122.6 L157.6,109.9 L200.3,84.4 Z" id="Path" fill-rule="nonzero"></path>
                <path d="M248.6,70.7 C243.3,72 239.6,75.1 237.3,79.8 C234.5,85.7 234.3,93.4 236.7,102.8 C239.1,112.5 243.1,119.4 248.5,123.6 C252.7,126.7 257.3,127.7 262.6,126.4 C268.2,124.9 272.2,121.6 274.7,116.4 C277.3,111.2 277.4,103.8 275.1,94.5 C272.5,84.3 268.6,77.3 263.4,73.3 C259.2,70.2 254.3,69.3 248.6,70.7 M248.7,67.3 C256.4,65.4 263.7,66.6 270.8,71.1 C277.9,75.5 282.6,82.1 284.8,90.8 C287.1,99.8 286.1,108 281.9,115.4 C277.7,122.8 271.5,127.4 263.4,129.5 C255.3,131.5 247.7,130.3 240.7,125.9 C233.7,121.5 229.1,114.7 226.8,105.5 C224.5,96.1 225.8,87.6 230.7,80.1 C234.9,73.5 240.9,69.3 248.7,67.3" id="Shape" fill-rule="nonzero"></path>
                <path d="M370.9,69.1 L369.4,83.3 L367.7,83 C367.7,80.4 367.6,78.6 367.2,77.4 C366.6,75.6 365.5,74.1 364.1,73.1 C362.7,72 360.8,71.3 358.2,70.9 L349.7,69.6 L342.4,115.7 C341.8,119.4 341.9,121.8 342.5,122.8 C343.4,124.2 345,125.1 347.4,125.5 L349.5,125.8 L349.2,127.4 L323.6,123.4 L323.9,121.7 L326,122 C328.6,122.4 330.5,122 331.8,120.5 C332.6,119.7 333.3,117.5 333.8,114.2 L341.1,68.1 L333.9,66.9 C331.1,66.5 329,66.3 327.8,66.6 C326.2,66.9 324.7,67.7 323.3,69.2 C322,70.6 321,72.7 320.3,75.4 L318.6,75.1 L321.6,61.1 L370.9,69.1 Z" id="Path" fill-rule="nonzero"></path>
                <path d="M419,91.5 C414.2,88.9 409.4,88.7 404.6,90.7 C398.6,93.2 393.3,98.8 388.7,107.4 C384,116.2 382.4,124 383.5,130.7 C384.5,135.9 387.4,139.7 392.1,142.2 C397.2,144.9 402.4,145.1 407.8,142.9 C413.2,140.7 418.2,135.3 422.7,126.9 C427.6,117.7 429.4,109.8 428.2,103.4 C427.2,98.2 424.1,94.2 419,91.5 M421.3,89 C428.3,92.7 432.9,98.6 435.3,106.6 C437.6,114.7 436.6,122.7 432.4,130.6 C428.1,138.8 421.9,144.2 413.8,146.9 C405.7,149.6 398.1,148.9 390.8,145.1 C383.3,141.1 378.5,135.2 376.3,127.2 C374.1,119.2 375.2,111.1 379.6,102.7 C384.2,94.1 390.8,88.7 399.4,86.4 C406.9,84.4 414.2,85.2 421.3,89" id="Shape" fill-rule="nonzero"></path>
                <path d="M445.8,186.1 L469.9,135 L438.7,161.2 C435.8,163.6 434.3,165.4 434,166.6 C433.8,168.3 434.4,170 436,171.8 L437.4,173.5 L436.1,174.6 L422.5,158.3 L423.8,157.3 L425.2,158.9 C426.9,160.9 428.6,161.8 430.5,161.6 C431.7,161.5 433.6,160.3 436.2,158.1 L466.8,132.4 C468.9,130.7 470.2,129.2 470.7,128 C471.1,127.1 471.1,126 470.9,124.8 C470.6,123.5 469.7,122 468.1,120.1 L469.3,119 L480.4,132.2 L458,180 L508.6,166 L519.7,179.2 L518.4,180.3 L517,178.7 C515.3,176.7 513.5,175.8 511.7,176 C510.5,176.1 508.6,177.2 506,179.5 L475.5,205 C472.6,207.4 471.1,209.2 471,210.4 C470.7,212.1 471.4,213.8 472.9,215.7 L474.2,217.3 L473,218.4 L456.3,198.5 L457.5,197.4 L458.9,199.1 C460.6,201.1 462.3,202 464.3,201.8 C465.4,201.7 467.3,200.6 469.9,198.4 L501.2,172.1 L446.7,187.1 L445.8,186.1 Z" id="Path" fill-rule="nonzero"></path>
                <path d="M563.1,246.2 L544.2,238.4 L543.7,236.9 L559.9,236.6 L563.1,246.2 Z M508,250.9 L528.3,233.5 L501.6,231 L508,250.9 Z M505.2,253.1 L497.9,230.6 L487.5,229.6 C484.9,229.4 483.1,229.4 482,229.8 C481.1,230.1 480.4,230.8 480,231.8 C479.6,232.9 479.8,234.8 480.5,237.7 L478.9,238.3 L473,220 L474.6,219.5 C475.8,221.8 476.9,223.2 477.8,223.7 C479.6,224.7 482.9,225.4 487.7,225.8 L542.1,230.7 L542.6,232.2 L500.9,268.1 C497.5,271 495.5,273.3 494.7,275 C494,276.7 494,278.8 494.6,281.2 L493.1,281.7 L485.6,258.8 L487.2,258.3 C488.1,260.6 489,262 489.9,262.6 C490.9,263.2 491.8,263.4 492.8,263.1 C494,262.7 495.9,261.5 498.1,259.5 L505.2,253.1 Z" id="Shape" fill-rule="nonzero"></path>
                <path d="M555.3,320.6 L534.2,321 L534.2,319.3 C538.2,318.7 541.4,317.7 543.8,316.2 C546.2,314.7 548.1,312.8 549.4,310.1 C550.8,307.5 551.5,304.8 551.4,302.1 C551.3,299 550.4,296.4 548.4,294.4 C546.5,292.4 544.3,291.4 541.9,291.4 C540,291.4 538.3,292.1 536.8,293.5 C534.6,295.4 531.7,299.9 528.1,306.9 C525.1,312.6 522.8,316.6 521.2,318.7 C519.7,320.9 517.7,322.4 515.5,323.6 C513.3,324.8 511,325.4 508.6,325.4 C504,325.5 499.9,323.8 496.5,320.3 C493.1,316.7 491.3,312.2 491.3,306.5 C491.2,304.8 491.4,303.1 491.6,301.5 C491.7,300.6 492.2,298.6 493.1,295.7 C494,292.7 494.4,290.9 494.4,290.1 C494.4,289.4 494.2,288.8 493.7,288.3 C493.2,287.9 492.3,287.6 490.9,287.4 L490.9,285.7 L511.8,285.3 L511.8,287 C507.4,287.9 504.1,289 502,290.3 C499.9,291.7 498.1,293.7 496.7,296.4 C495.4,299.2 494.6,302.1 494.7,305.4 C494.8,309.1 495.8,312.1 497.8,314.2 C499.8,316.4 502.2,317.4 504.9,317.3 C506.4,317.3 508,316.8 509.4,316 C511,315.1 512.4,313.8 513.6,312.1 C514.5,310.9 516.3,307.7 519.2,302.4 C522,297.1 524.4,293.3 526,291.1 C527.7,288.9 529.6,287.2 531.7,286 C533.8,284.8 536.1,284.2 538.6,284.1 C543,284 546.8,285.6 550,288.9 C553.3,292.2 554.9,296.5 555,301.7 C555,305 554.3,308.4 552.7,312.1 C552,313.8 551.6,315 551.6,315.7 C551.6,316.5 551.9,317.1 552.3,317.6 C552.8,318.1 553.8,318.5 555.2,318.8 L555.2,320.6 L555.3,320.6 Z" id="Path" fill-rule="nonzero"></path>
                <path d="M739.4,271.3 C735.6,269.4 735.3,268.5 735.3,261.3 C735.3,248.2 736.5,237.7 736.8,233.3 C736.8,230.5 737.4,229 739,229 C740.6,229 741.6,229.9 741.6,232.1 C741.6,234.3 741.6,238 742.5,241.8 C746.8,261.1 767.4,268 785.8,268 C812.9,268 827,252.7 827,232.8 C827,213.8 816.7,204.8 792.4,186.7 L779.9,177.4 C750.3,155.3 740.7,139.1 740.7,120.7 C740.7,89.6 765.3,70.8 801.5,70.8 C812.3,70.8 823.3,72.4 829.8,73.9 C835.1,75.1 837.3,75.1 839.5,75.1 C841.7,75.1 842.3,75.4 842.3,76.9 C842.3,78.2 841.1,86.9 841.1,105 C841.1,109 840.8,110.9 838.9,110.9 C837,110.9 836.7,109.7 836.4,107.5 C836.1,104.4 833.9,97.2 832.3,94.4 C830.4,91.3 821.4,81.3 796.8,81.3 C776.9,81.3 760.4,91.3 760.4,109.9 C760.4,126.7 768.8,136.4 795.9,154.8 L803.7,160.1 C837,182.9 848.6,201.2 848.6,223.9 C848.6,239.5 842.7,256.3 823.1,269.1 C811.5,276.6 794.4,278.4 779.4,278.4 C766.5,278.5 750.6,276.6 739.4,271.3" id="Path" fill-rule="nonzero"></path>
                <path d="M988.3,190.3 C989.6,190.3 989.6,189.6 989.2,188.5 L962.1,115.9 C960.6,111.8 959,111.8 957.4,115.9 L931.8,188.5 C931.5,189.6 931.8,190.3 932.7,190.3 L988.3,190.3 Z M957.7,80 C961.1,71.3 962.4,69.8 964.2,69.8 C967,69.8 968,73.5 970.7,79.5 C975.7,90.7 1019.6,200 1036.4,240.3 C1046.4,263.9 1053.9,267.4 1059.8,269.2 C1063.9,270.5 1067.9,270.7 1070.7,270.7 C1072.2,270.7 1074.1,271.3 1074.1,272.9 C1074.1,274.5 1070.9,275.1 1067.9,275.1 C1063.8,275.1 1043.6,275.1 1024.6,274.5 C1019.3,274.2 1015,274.2 1015,272.6 C1015,271.4 1015.6,271.4 1016.8,270.7 C1018.3,270.1 1021.2,267.9 1019.3,263.5 L994.7,202.8 C994,201.6 993.7,201.2 992.2,201.2 L929,201.2 C927.8,201.2 926.8,201.8 926.2,203.4 L910.6,245.8 C908.1,252.3 906.6,258.8 906.6,263.5 C906.6,268.8 911.3,270.7 915.9,270.7 L918.4,270.7 C920.6,270.7 921.2,271.7 921.2,272.9 C921.2,274.5 919.6,275.1 917.1,275.1 C910.6,275.1 895.6,274.2 892.5,274.2 C889.7,274.2 876,275.1 864.8,275.1 C861.4,275.1 859.5,274.5 859.5,272.9 C859.5,271.7 860.7,270.7 862,270.7 C863.9,270.7 867.9,270.4 870.1,270.1 C882.5,268.6 887.8,259.2 893.1,245.8 L957.7,80 Z" id="Shape" fill-rule="nonzero"></path>
                <path d="M1112.2,238.9 C1112.9,260.7 1115.3,267.2 1122.8,269.1 C1127.7,270.3 1134,270.7 1136.5,270.7 C1137.7,270.7 1138.7,271.6 1138.7,272.9 C1138.7,274.4 1136.8,275.1 1133.7,275.1 C1118.1,275.1 1107.2,274.1 1104.7,274.1 C1102.3,274.1 1090.7,275.1 1078.2,275.1 C1075.4,275.1 1073.9,274.8 1073.9,272.9 C1073.9,271.7 1074.8,270.7 1076.1,270.7 C1078.3,270.7 1083.3,270.4 1087.3,269.1 C1094.2,267.2 1095.1,260.1 1095.1,236.1 L1095.1,84.4 C1095.1,73.8 1096.7,71 1098.8,71 C1101.9,71 1106.6,76.3 1109.4,79.1 C1113.7,83.5 1153.6,125.8 1196,169.4 C1223.1,197.5 1252.4,228.9 1260.8,237.7 L1258,105 C1257.7,87.8 1256.1,81.9 1247.7,80.4 C1242.8,79.4 1236.5,79.1 1234.3,79.1 C1232.5,79.1 1232.1,77.6 1232.1,76.7 C1232.1,75.1 1234.3,74.8 1237.4,74.8 C1249.9,74.8 1263,75.4 1266.1,75.4 C1269.2,75.4 1278.2,74.8 1289.5,74.8 C1292.3,74.8 1294.5,75.1 1294.5,76.7 C1294.5,77.6 1293.3,79.1 1291.4,79.1 C1290.1,79.1 1288,79.1 1284.8,79.7 C1275.8,81.6 1275.1,86.8 1275.1,102.8 L1274.5,257.9 C1274.5,275.4 1274.1,276.9 1272.3,276.9 C1269.5,276.9 1266.7,274.7 1251.4,260.7 C1248.6,258.2 1209,219.2 1180.1,189 C1148.3,155.7 1117.5,123.3 1109,114 L1112.2,238.9 Z" id="Path" fill-rule="nonzero"></path>
                <path d="M1410.2,198.1 C1410.2,223.6 1410.2,244.5 1411.4,255.4 C1412.3,263.2 1413.6,268.2 1422,269.4 C1425.7,270 1432,270.6 1434.5,270.6 C1436.4,270.6 1436.7,271.9 1436.7,272.8 C1436.7,274 1435.5,275 1432.3,275 C1417.3,275 1399.9,274.1 1398.4,274.1 C1397.1,274.1 1378.1,275 1370,275 C1366.9,275 1365.6,274.4 1365.6,272.8 C1365.6,271.9 1366.2,270.9 1367.8,270.9 C1370.3,270.9 1373.4,270.3 1375.9,269.7 C1381.5,268.5 1383.1,263.2 1384,255.4 C1385.3,244.5 1385.3,223.6 1385.3,198.1 L1385.3,86.9 L1345.7,87.5 C1328.6,87.8 1322,89.7 1318,95.9 C1314.9,100.6 1314.6,102.5 1313.6,104.3 C1313,106.5 1312,106.8 1310.8,106.8 C1310.2,106.8 1308.9,106.2 1308.9,104.6 C1308.9,101.8 1314.5,78.2 1314.8,76 C1315.4,74.4 1316.6,71 1317.6,71 C1319.5,71 1322.3,73.2 1329.7,74.1 C1337.5,75.1 1348.1,75.4 1351.2,75.4 L1454.7,75.4 C1463.6,75.4 1469.9,74.7 1474.3,74.1 C1478.3,73.5 1480.8,72.9 1482.1,72.9 C1483.3,72.9 1483.3,74.4 1483.3,76 C1483.3,84.1 1482.4,103.1 1482.4,106.2 C1482.4,108.4 1481.2,109.7 1479.9,109.7 C1478.6,109.7 1478,108.7 1477.7,105 L1477.4,102.2 C1476.5,94.1 1470.5,88.2 1444.4,87.5 L1410.1,86.9 L1410.1,198.1 L1410.2,198.1 Z" id="Path" fill-rule="nonzero"></path>
                <path d="M1607.4,267.6 C1632,267.6 1681.6,254.5 1681.6,177.9 C1681.6,114.4 1643,81 1599.7,81 C1553.9,81 1520.8998,109.7 1520.8998,167.3 C1520.8,228.9 1557.8,267.6 1607.4,267.6 M1601.1,71 C1662.8,71 1709.5,108.7 1709.5,170.4 C1709.5,229.6 1665.6,278.4 1599.6,278.4 C1524.5,278.4 1492.4,222 1492.4,174.4 C1492.4,131.7 1525.4,71 1601.1,71" id="Shape" fill-rule="nonzero"></path>
                <path d="M820.2,466.1 C820.2,491.4 820.2,512 821.4,522.8 C822.4,530.5 823.6,535.4 831.9,536.6 C835.6,537.2 841.7,537.8 844.2,537.8 C846,537.8 846.4,539.1 846.4,540 C846.4,541.2 845.2,542.1 842.1,542.1 C827.3,542.1 810.1,541.2 808.5,541.2 C807.3,541.2 788.5,542.1 780.5,542.1 C777.4,542.1 776.2,541.5 776.2,540 C776.2,539.1 776.8,538.1 778.3,538.1 C780.8,538.1 783.9,537.5 786.4,536.9 C791.9,535.7 793.5,530.4 794.4,522.7 C795.7,511.9 795.7,491.3 795.7,466 L795.7,356 L756.5,356.7 C739.6,357 733.1,358.8 729.1,365 C726,369.6 725.7,371.4 724.8,373.3 C724.1,375.5 723.2,375.7 722,375.7 C721.4,375.7 720.2,375.1 720.2,373.6 C720.2,370.8 725.7,347.4 726,345.3 C726.6,343.8 727.9,340.3 728.8,340.3 C730.7,340.3 733.5,342.5 740.9,343.4 C748.6,344.3 759.1,344.7 762.1,344.7 L864.4,344.7 C873.3,344.7 879.5,344 883.8,343.4 C887.8,342.8 890.3,342.2 891.6,342.2 C892.8,342.2 892.8,343.8 892.8,345.3 C892.8,353.3 891.8,372.1 891.8,375.2 C891.8,377.4 890.6,378.6 889.4,378.6 C888.2,378.6 887.6,377.7 887.3,373.9 L887,371.1 C886.1,363.1 880.2,357.3 854.3,356.7 L820.4,356 L820.4,466.1 L820.2,466.1 Z" id="Path" fill-rule="nonzero"></path>
                <path d="M1015.1,534.8 C1039.4,534.8 1088.4,521.9 1088.4,446.1 C1088.4,383.2 1050.2,350.3 1007.4,350.3 C962.1,350.3 929.5,378.6 929.5,435.7 C929.5,496.6 966.2,534.8 1015.1,534.8 M1009,340.4 C1070,340.4 1116.2,377.7 1116.2,438.7 C1116.2,497.2 1072.8,545.6 1007.4,545.6 C933.1,545.6 901.4,489.8 901.4,442.7 C901.4,400.5 934.1,340.4 1009,340.4" id="Shape" fill-rule="nonzero"></path>
                <path d="M1349.8,508.3 C1350.7,517.6 1352.6,531.7 1363.7,535.4 C1371.4,537.9 1378.5,537.9 1381.3,537.9 C1382.5,537.9 1383.4,538.6 1383.4,539.8 C1383.4,541.3 1380.9,542.2 1377.9,542.2 C1371.7,542.2 1341.5,541.6 1331.7,540.7 C1325.2,540.1 1324,539.2 1324,537.9 C1324,537 1324.6,536.1 1325.9,535.8 C1327.4,535.5 1327.7,531.5 1327.1,526.6 L1314,394 L1313.4,394 L1248.1,527.7 C1242.6,539.1 1241,541.6 1238.5,541.6 C1236,541.6 1234.5,539.1 1229.3,529.6 C1222.3,516.7 1204.3,483.1 1197.5,469 C1189.5,452.4 1167.6,408.3 1163,397.5 L1161.8,397.5 L1151.3,515.8 C1151,519.8 1151,524.7 1151,529.1 C1151,533 1153.4,535.5 1157.5,536.5 C1162.2,537.7 1166.1,538 1168,538 C1169,538 1170.2,538.9 1170.2,539.9 C1170.2,541.8 1168.4,542.3 1165.3,542.3 C1155.1,542.3 1142.2,541.4 1140,541.4 C1137.6,541.4 1124.6,542.3 1117.2,542.3 C1114.4,542.3 1112.5,541.7 1112.5,539.9 C1112.5,538.9 1113.8,538 1115.3,538 C1117.5,538 1119.3,537.7 1123.3,537.1 C1132.2,535.5 1132.6,526 1133.8,516.1 L1153.5,345.1 C1153.8,342.3 1155,340.5 1156.6,340.5 C1158.5,340.5 1160.6,341.4 1162.2,344.5 L1244.1,507.2 L1323,344.9 C1324.2,342.4 1325.5,340.5 1327.3,340.5 C1329.1,340.5 1330.7,342.7 1331.3,347.6 L1349.8,508.3 Z" id="Path" fill-rule="nonzero"></path>
                <path d="M1530.1,302.8 C1531.6,305.6 1530.1,306.6 1528.9,306.6 C1527.9,306.6 1524.9,306 1519.7,306.6 C1504.5,308.1 1483,315.2 1472.8,319.5 C1470.6,320.5 1468.8,321.1 1468.2,321.1 C1467.6,321.1 1466.6,320.5 1466.6,319.2 C1466.6,318.3 1467.3,317.7 1468.8,316.7 C1479.9,309 1508.6,291.7 1510.7,290.5 C1515.9,287.4 1517.8,286.5 1519.3,286.5 C1520.2,286.5 1520.8,287.1 1522.4,289.3 C1524.6,292.4 1526.8,296.7 1530.1,302.8 M1506.1,458.4 C1507.3,458.4 1507.3,457.8 1507,456.6 L1480.1,384.8 C1478.6,380.8 1477.1,380.8 1475.5,384.8 L1450.3,456.6 C1449.9,457.8 1450.3,458.4 1451.2,458.4 L1506.1,458.4 Z M1475.9,349.4 C1479.3,340.7 1480.5,339.2 1482.3,339.2 C1485.1,339.2 1486,342.9 1488.8,348.7 C1493.7,359.8 1537.2,467.9 1553.8,507.7 C1563.6,531.1 1571,534.5 1576.9,536.3 C1580.9,537.5 1584.9,537.8 1587.7,537.8 C1589.3,537.8 1591.1,538.5 1591.1,540 C1591.1,541.5 1588,542.1 1584.9,542.1 C1580.9,542.1 1560.9,542.1 1542.1,541.5 C1536.9,541.2 1532.6,541.2 1532.6,539.6 C1532.6,538.4 1533.2,538.4 1534.4,537.7 C1535.9,537.1 1538.8,534.9 1536.9,530.6 L1512.6,470.5 C1512,469.3 1511.7,469 1510.2,469 L1447.6,469 C1446.3,469 1445.4,469.6 1444.8,471.2 L1429.3,513.1 C1426.9,519.5 1425.4,526 1425.4,530.6 C1425.4,535.8 1430,537.7 1434.6,537.7 L1437,537.7 C1439.2,537.7 1439.8,538.6 1439.8,539.9 C1439.8,541.4 1438.3,542 1435.8,542 C1429.3,542 1414.5,541.1 1411.5,541.1 C1408.7,541.1 1395.1,542 1384,542 C1380.6,542 1378.8,541.4 1378.8,539.9 C1378.8,538.6 1380,537.7 1381.3,537.7 C1383.1,537.7 1387.1,537.4 1389.2,537.1 C1401.6,535.6 1406.8,526.3 1412,513.1 L1475.9,349.4 Z" id="Shape" fill-rule="nonzero"></path>
                <path d="M1597.3,538.4 C1593.6,536.6 1593.3,535.6 1593.3,528.6 C1593.3,515.6 1594.5,505.2 1594.9,500.9 C1594.9,498.1 1595.5,496.6 1597,496.6 C1598.5,496.6 1599.5,497.5 1599.5,499.7 C1599.5,501.9 1599.5,505.5 1600.4,509.2 C1604.7,528.3 1625.1,535.1 1643.2,535.1 C1670,535.1 1683.9,520 1683.9,500.3 C1683.9,481.5 1673.7,472.6 1649.7,454.7 L1637.3,445.5 C1608.1,423.6 1598.5,407.6 1598.5,389.4 C1598.5,358.6 1622.9,340.1 1658.6,340.1 C1669.4,340.1 1680.1,341.6 1686.6,343.2 C1691.8,344.5 1694,344.5 1696.1,344.5 C1698.3,344.5 1698.9,344.8 1698.9,346.3 C1698.9,347.5 1697.7,356.2 1697.7,374 C1697.7,378 1697.4,379.9 1695.5,379.9 C1693.7,379.9 1693.4,378.6 1693.1,376.5 C1692.8,373.4 1690.6,366.3 1689.1,363.6 C1687.3,360.5 1678.4,350.7 1654,350.7 C1634.3,350.7 1617.9,360.5 1617.9,379 C1617.9,395.6 1626.2,405.2 1653.1,423.4 L1660.7,428.6 C1693.7,451.1 1705.1,469.3 1705.1,491.7 C1705.1,507.1 1699.3,523.8 1679.8,536.4 C1668.4,543.8 1651.5,545.6 1636.7,545.6 C1624,545.5 1608.3,543.7 1597.3,538.4" id="Path" fill-rule="nonzero"></path>
                <path d="M1725.7,83.9 L1730,83.9 C1731.8,83.9 1733.1,84 1733.7,84.3 C1734.4,84.6 1734.9,85 1735.3,85.5 C1735.7,86 1735.9,86.7 1735.9,87.3 C1735.9,88.4 1735.5,89.2 1734.7,89.8 C1733.9,90.4 1732.5,90.8 1730.3,90.8 L1725.8,90.8 L1725.8,83.9 L1725.7,83.9 Z M1725.7,103.8 L1725.7,94 L1727.9,94 C1729.2,94 1730.2,94.2 1730.9,94.8 C1731.8,95.5 1733.2,97.3 1734.7,100.2 L1736.7,103.8 L1741.2,103.8 L1738.4,99.3 C1737.1,97.2 1735.9,95.7 1735,94.8 C1734.5,94.3 1733.9,93.9 1733.1,93.5 C1735,93.4 1736.7,92.7 1737.8,91.4 C1739,90.2 1739.7,88.7 1739.7,87 C1739.7,85.8 1739.3,84.7 1738.6,83.6 C1737.9,82.5 1736.9,81.8 1735.7,81.3 C1734.5,80.9 1732.5,80.7 1729.8,80.7 L1721.9,80.7 L1721.9,103.7 L1725.7,103.7 L1725.7,103.8 Z M1740.2,76.4 C1743,77.9 1745.3,80.1 1746.9,83 C1748.5,85.9 1749.3,88.8 1749.3,92 C1749.3,95.1 1748.5,98 1747,100.9 C1745.4,103.7 1743.2,105.9 1740.3,107.5 C1737.5,109.1 1729,109.8 1731.4,109.8 C1734.5,109.8 1725.4,109 1722.5,107.5 C1719.7,105.9 1717.5,103.7 1715.9,100.9 C1714.3,98 1713.5,95.1 1713.5,92 C1713.5,88.9 1714.3,85.9 1715.9,83 C1717.5,80.2 1719.7,78 1722.6,76.4 C1725.4,74.8 1728.3,74.1 1731.4,74.1 C1734.4,74.1 1737.3,74.8 1740.2,76.4 M1720.9,73.3 C1717.5,75.1 1714.8,77.8 1712.9,81.2 C1711,84.6 1710,88.2 1710,92 C1710,95.7 1711,99.2 1712.9,102.6 C1714.8,106 1717.5,108.7 1720.8,110.5 C1724.2,112.3 1727.7,113.3 1731.5,113.3 C1735.2,113.3 1738.7,112.3 1742.2,110.5 C1745.6,108.6 1748.2,106 1750.1,102.6 C1751.9,99.2 1752.9,95.7 1752.9,92 C1752.9,88.3 1751.9,84.7 1750,81.2 C1748.1,77.8 1745.4,75.1 1742,73.3 C1738.6,71.5 1735.1,70.5 1731.5,70.5 C1727.8,70.5 1724.3,71.5 1720.9,73.3" id="Shape" fill-rule="nonzero"></path>
            </g>
        </g>
    </g>
</svg>